<?xml version="1.0" encoding="utf-8" standalone="no"?>
<!DOCTYPE svg PUBLIC "-//W3C//DTD SVG 1.1//EN"
  "http://www.w3.org/Graphics/SVG/1.1/DTD/svg11.dtd">
<svg xmlns:xlink="http://www.w3.org/1999/xlink" width="225.187893pt" height="412.630281pt" viewBox="0 0 225.187893 412.630281" xmlns="http://www.w3.org/2000/svg" version="1.1">
 <metadata>
  <rdf:RDF xmlns:dc="http://purl.org/dc/elements/1.1/" xmlns:cc="http://creativecommons.org/ns#" xmlns:rdf="http://www.w3.org/1999/02/22-rdf-syntax-ns#">
   <cc:Work>
    <dc:type rdf:resource="http://purl.org/dc/dcmitype/StillImage"/>
    <dc:date>2026-06-27T08:14:51.460070</dc:date>
    <dc:format>image/svg+xml</dc:format>
    <dc:creator>
     <cc:Agent>
      <dc:title>Matplotlib v3.11.0, https://matplotlib.org/</dc:title>
     </cc:Agent>
    </dc:creator>
   </cc:Work>
  </rdf:RDF>
 </metadata>
 <defs>
  <style type="text/css">*{stroke-linejoin: round; stroke-linecap: butt}</style>
 </defs>
 <g id="figure_1">
  <g id="patch_1">
   <path d="M 0 412.630281 
L 225.187893 412.630281 
L 225.187893 0 
L 0 0 
z
" style="fill: #ffffff"/>
  </g>
  <g id="axes_1">
   <g id="patch_2">
    <path d="M 103.223467 61.998093 
L 213.821157 61.998093 
L 213.821157 51.943758 
L 103.223467 51.943758 
z
" clip-path="url(#pe6c0859308)" style="fill: #e7c9a4; stroke: #3a2a1a; stroke-width: 1.2; stroke-linejoin: miter"/>
   </g>
   <g id="patch_3">
    <path d="M 111.60208 373.682492 
L 121.656415 373.682492 
L 121.656415 72.052429 
L 111.60208 72.052429 
z
" clip-path="url(#pe6c0859308)" style="fill: #e7c9a4; stroke: #3a2a1a; stroke-width: 1.2; stroke-linejoin: miter"/>
   </g>
   <g id="patch_4">
    <path d="M 195.388209 373.682492 
L 205.442544 373.682492 
L 205.442544 72.052429 
L 195.388209 72.052429 
z
" clip-path="url(#pe6c0859308)" style="fill: #e7c9a4; stroke: #3a2a1a; stroke-width: 1.2; stroke-linejoin: miter"/>
   </g>
   <g id="patch_5">
    <path d="M 111.60208 72.052429 
L 205.442544 72.052429 
L 205.442544 61.998093 
L 111.60208 61.998093 
z
" clip-path="url(#pe6c0859308)" style="fill: #e7c9a4; stroke: #3a2a1a; stroke-width: 1.2; stroke-linejoin: miter"/>
   </g>
   <g id="patch_6">
    <path d="M 121.656415 216.16457 
L 195.388209 216.16457 
L 195.388209 182.650119 
L 121.656415 182.650119 
z
" clip-path="url(#pe6c0859308)" style="fill: #e7c9a4; stroke-dasharray: 4.44,1.92; stroke-dashoffset: 0; stroke: #3a2a1a; stroke-width: 1.2; stroke-linejoin: miter"/>
   </g>
   <g id="line2d_1">
    <path d="M 103.223467 373.682492 
L 77.484368 373.682492 
" clip-path="url(#pe6c0859308)" style="fill: none; stroke: #1763b8; stroke-width: 0.5; stroke-linecap: square"/>
   </g>
   <g id="line2d_2">
    <path d="M 103.223467 51.943758 
L 77.484368 51.943758 
" clip-path="url(#pe6c0859308)" style="fill: none; stroke: #1763b8; stroke-width: 0.5; stroke-linecap: square"/>
   </g>
   <g id="line2d_3">
    <path d="M 103.223467 51.943758 
L 103.223467 34.248127 
" clip-path="url(#pe6c0859308)" style="fill: none; stroke: #1763b8; stroke-width: 0.5; stroke-linecap: square"/>
   </g>
   <g id="line2d_4">
    <path d="M 213.821157 51.943758 
L 213.821157 34.248127 
" clip-path="url(#pe6c0859308)" style="fill: none; stroke: #1763b8; stroke-width: 0.5; stroke-linecap: square"/>
   </g>
   <g id="line2d_5">
    <path d="M 116.629248 373.682492 
L 116.629248 396.740435 
" clip-path="url(#pe6c0859308)" style="fill: none; stroke: #1763b8; stroke-width: 0.5; stroke-linecap: square"/>
   </g>
   <g id="line2d_6">
    <path d="M 200.415377 373.682492 
L 200.415377 396.740435 
" clip-path="url(#pe6c0859308)" style="fill: none; stroke: #1763b8; stroke-width: 0.5; stroke-linecap: square"/>
   </g>
   <g id="line2d_7">
    <path d="M 121.656415 216.16457 
L 132.649156 216.16457 
" clip-path="url(#pe6c0859308)" style="fill: none; stroke: #1763b8; stroke-width: 0.5; stroke-linecap: square"/>
   </g>
   <g id="line2d_8">
    <path d="M 121.656415 182.650119 
L 132.649156 182.650119 
" clip-path="url(#pe6c0859308)" style="fill: none; stroke: #1763b8; stroke-width: 0.5; stroke-linecap: square"/>
   </g>
   <g id="text_1">
    <!-- stretcher -->
    <g style="fill: #3a2a1a" transform="translate(140.444812 201.485782) scale(0.08 -0.08)">
     <defs>
      <path id="DejaVuSans-56" d="M 2834 3397 
L 2834 2853 
Q 2591 2978 2328 3040 
Q 2066 3103 1784 3103 
Q 1356 3103 1142 2972 
Q 928 2841 928 2578 
Q 928 2378 1081 2264 
Q 1234 2150 1697 2047 
L 1894 2003 
Q 2506 1872 2764 1633 
Q 3022 1394 3022 966 
Q 3022 478 2636 193 
Q 2250 -91 1575 -91 
Q 1294 -91 989 -36 
Q 684 19 347 128 
L 347 722 
Q 666 556 975 473 
Q 1284 391 1588 391 
Q 1994 391 2212 530 
Q 2431 669 2431 922 
Q 2431 1156 2273 1281 
Q 2116 1406 1581 1522 
L 1381 1569 
Q 847 1681 609 1914 
Q 372 2147 372 2553 
Q 372 3047 722 3315 
Q 1072 3584 1716 3584 
Q 2034 3584 2315 3537 
Q 2597 3491 2834 3397 
z
" transform="scale(0.015625)"/>
      <path id="DejaVuSans-57" d="M 1172 4494 
L 1172 3500 
L 2356 3500 
L 2356 3053 
L 1172 3053 
L 1172 1153 
Q 1172 725 1289 603 
Q 1406 481 1766 481 
L 2356 481 
L 2356 0 
L 1766 0 
Q 1100 0 847 248 
Q 594 497 594 1153 
L 594 3053 
L 172 3053 
L 172 3500 
L 594 3500 
L 594 4494 
L 1172 4494 
z
" transform="scale(0.015625)"/>
      <path id="DejaVuSans-55" d="M 2631 2963 
Q 2534 3019 2420 3045 
Q 2306 3072 2169 3072 
Q 1681 3072 1420 2755 
Q 1159 2438 1159 1844 
L 1159 0 
L 581 0 
L 581 3500 
L 1159 3500 
L 1159 2956 
Q 1341 3275 1631 3429 
Q 1922 3584 2338 3584 
Q 2397 3584 2469 3576 
Q 2541 3569 2628 3553 
L 2631 2963 
z
" transform="scale(0.015625)"/>
      <path id="DejaVuSans-48" d="M 3597 1894 
L 3597 1613 
L 953 1613 
Q 991 1019 1311 708 
Q 1631 397 2203 397 
Q 2534 397 2845 478 
Q 3156 559 3463 722 
L 3463 178 
Q 3153 47 2828 -22 
Q 2503 -91 2169 -91 
Q 1331 -91 842 396 
Q 353 884 353 1716 
Q 353 2575 817 3079 
Q 1281 3584 2069 3584 
Q 2775 3584 3186 3129 
Q 3597 2675 3597 1894 
z
M 3022 2063 
Q 3016 2534 2758 2815 
Q 2500 3097 2075 3097 
Q 1594 3097 1305 2825 
Q 1016 2553 972 2059 
L 3022 2063 
z
" transform="scale(0.015625)"/>
      <path id="DejaVuSans-46" d="M 3122 3366 
L 3122 2828 
Q 2878 2963 2633 3030 
Q 2388 3097 2138 3097 
Q 1578 3097 1268 2742 
Q 959 2388 959 1747 
Q 959 1106 1268 751 
Q 1578 397 2138 397 
Q 2388 397 2633 464 
Q 2878 531 3122 666 
L 3122 134 
Q 2881 22 2623 -34 
Q 2366 -91 2075 -91 
Q 1284 -91 818 406 
Q 353 903 353 1747 
Q 353 2603 823 3093 
Q 1294 3584 2113 3584 
Q 2378 3584 2631 3529 
Q 2884 3475 3122 3366 
z
" transform="scale(0.015625)"/>
      <path id="DejaVuSans-4b" d="M 3513 2113 
L 3513 0 
L 2938 0 
L 2938 2094 
Q 2938 2591 2744 2837 
Q 2550 3084 2163 3084 
Q 1697 3084 1428 2787 
Q 1159 2491 1159 1978 
L 1159 0 
L 581 0 
L 581 4863 
L 1159 4863 
L 1159 2956 
Q 1366 3272 1645 3428 
Q 1925 3584 2291 3584 
Q 2894 3584 3203 3211 
Q 3513 2838 3513 2113 
z
" transform="scale(0.015625)"/>
     </defs>
     <use xlink:href="#DejaVuSans-56"/>
     <use xlink:href="#DejaVuSans-57" transform="translate(52.09375 0)"/>
     <use xlink:href="#DejaVuSans-55" transform="translate(91.296875 0)"/>
     <use xlink:href="#DejaVuSans-48" transform="translate(130.203125 0)"/>
     <use xlink:href="#DejaVuSans-57" transform="translate(191.734375 0)"/>
     <use xlink:href="#DejaVuSans-46" transform="translate(230.9375 0)"/>
     <use xlink:href="#DejaVuSans-4b" transform="translate(285.921875 0)"/>
     <use xlink:href="#DejaVuSans-48" transform="translate(349.296875 0)"/>
     <use xlink:href="#DejaVuSans-55" transform="translate(410.828125 0)"/>
    </g>
   </g>
   <g id="patch_7">
    <path d="M 79.093062 52.949988 
Q 79.093062 212.813125 79.093062 372.676262 
" style="fill: none; stroke: #1763b8; stroke-width: 0.9; stroke-linecap: round"/>
    <path d="M 77.293062 56.549988 
L 79.093062 52.949988 
L 80.893062 56.549988 
" style="fill: none; stroke: #1763b8; stroke-width: 0.9; stroke-linecap: round"/>
    <path d="M 80.893062 369.076262 
L 79.093062 372.676262 
L 77.293062 369.076262 
" style="fill: none; stroke: #1763b8; stroke-width: 0.9; stroke-linecap: round"/>
   </g>
   <g id="text_2">
    <!-- 24" -->
    <g style="fill: #1763b8" transform="translate(79.017912 220.609375) rotate(-90) scale(0.09 -0.09)">
     <defs>
      <path id="DejaVuSans-15" d="M 1228 531 
L 3431 531 
L 3431 0 
L 469 0 
L 469 531 
Q 828 903 1448 1529 
Q 2069 2156 2228 2338 
Q 2531 2678 2651 2914 
Q 2772 3150 2772 3378 
Q 2772 3750 2511 3984 
Q 2250 4219 1831 4219 
Q 1534 4219 1204 4116 
Q 875 4013 500 3803 
L 500 4441 
Q 881 4594 1212 4672 
Q 1544 4750 1819 4750 
Q 2544 4750 2975 4387 
Q 3406 4025 3406 3419 
Q 3406 3131 3298 2873 
Q 3191 2616 2906 2266 
Q 2828 2175 2409 1742 
Q 1991 1309 1228 531 
z
" transform="scale(0.015625)"/>
      <path id="DejaVuSans-17" d="M 2419 4116 
L 825 1625 
L 2419 1625 
L 2419 4116 
z
M 2253 4666 
L 3047 4666 
L 3047 1625 
L 3713 1625 
L 3713 1100 
L 3047 1100 
L 3047 0 
L 2419 0 
L 2419 1100 
L 313 1100 
L 313 1709 
L 2253 4666 
z
" transform="scale(0.015625)"/>
      <path id="DejaVuSans-5" d="M 1147 4666 
L 1147 2931 
L 616 2931 
L 616 4666 
L 1147 4666 
z
M 2328 4666 
L 2328 2931 
L 1797 2931 
L 1797 4666 
L 2328 4666 
z
" transform="scale(0.015625)"/>
     </defs>
     <use xlink:href="#DejaVuSans-15"/>
     <use xlink:href="#DejaVuSans-17" transform="translate(63.625 0)"/>
     <use xlink:href="#DejaVuSans-5" transform="translate(127.25 0)"/>
    </g>
   </g>
   <g id="patch_8">
    <path d="M 212.814927 35.856821 
Q 158.522312 35.856821 104.229698 35.856821 
" style="fill: none; stroke: #1763b8; stroke-width: 0.9; stroke-linecap: round"/>
    <path d="M 209.214927 34.056821 
L 212.814927 35.856821 
L 209.214927 37.656821 
" style="fill: none; stroke: #1763b8; stroke-width: 0.9; stroke-linecap: round"/>
    <path d="M 107.829698 37.656821 
L 104.229698 35.856821 
L 107.829698 34.056821 
" style="fill: none; stroke: #1763b8; stroke-width: 0.9; stroke-linecap: round"/>
   </g>
   <g id="text_3">
    <!-- 8¼" -->
    <g style="fill: #1763b8" transform="translate(149.227703 35.781671) scale(0.09 -0.09)">
     <defs>
      <path id="DejaVuSans-1b" d="M 2034 2216 
Q 1584 2216 1326 1975 
Q 1069 1734 1069 1313 
Q 1069 891 1326 650 
Q 1584 409 2034 409 
Q 2484 409 2743 651 
Q 3003 894 3003 1313 
Q 3003 1734 2745 1975 
Q 2488 2216 2034 2216 
z
M 1403 2484 
Q 997 2584 770 2862 
Q 544 3141 544 3541 
Q 544 4100 942 4425 
Q 1341 4750 2034 4750 
Q 2731 4750 3128 4425 
Q 3525 4100 3525 3541 
Q 3525 3141 3298 2862 
Q 3072 2584 2669 2484 
Q 3125 2378 3379 2068 
Q 3634 1759 3634 1313 
Q 3634 634 3220 271 
Q 2806 -91 2034 -91 
Q 1263 -91 848 271 
Q 434 634 434 1313 
Q 434 1759 690 2068 
Q 947 2378 1403 2484 
z
M 1172 3481 
Q 1172 3119 1398 2916 
Q 1625 2713 2034 2713 
Q 2441 2713 2670 2916 
Q 2900 3119 2900 3481 
Q 2900 3844 2670 4047 
Q 2441 4250 2034 4250 
Q 1625 4250 1398 4047 
Q 1172 3844 1172 3481 
z
" transform="scale(0.015625)"/>
      <path id="DejaVuSans-7e" d="M 488 2431 
L 1125 2431 
L 1125 4341 
L 428 4213 
L 428 4575 
L 1147 4697 
L 1575 4697 
L 1575 2431 
L 2216 2431 
L 2216 2088 
L 488 2088 
L 488 2431 
z
M 5125 2231 
L 4159 921 
L 5125 921 
L 5125 2231 
z
M 5056 2609 
L 5575 2609 
L 5575 921 
L 5997 921 
L 5997 581 
L 5575 581 
L 5575 0 
L 5125 0 
L 5125 581 
L 3831 581 
L 3831 959 
L 5056 2609 
z
M 4307 4750 
L 4807 4750 
L 1894 -91 
L 1394 -91 
L 4307 4750 
z
" transform="scale(0.015625)"/>
     </defs>
     <use xlink:href="#DejaVuSans-1b"/>
     <use xlink:href="#DejaVuSans-7e" transform="translate(63.625 0)"/>
     <use xlink:href="#DejaVuSans-5" transform="translate(160.546875 0)"/>
    </g>
   </g>
   <g id="patch_9">
    <path d="M 199.409146 395.131741 
Q 158.522312 395.131741 117.635478 395.131741 
" style="fill: none; stroke: #1763b8; stroke-width: 0.9; stroke-linecap: round"/>
    <path d="M 195.809146 393.331741 
L 199.409146 395.131741 
L 195.809146 396.931741 
" style="fill: none; stroke: #1763b8; stroke-width: 0.9; stroke-linecap: round"/>
    <path d="M 121.235478 396.931741 
L 117.635478 395.131741 
L 121.235478 393.331741 
" style="fill: none; stroke: #1763b8; stroke-width: 0.9; stroke-linecap: round"/>
   </g>
   <g id="text_4">
    <!-- 6¼" (centerlines) -->
    <g style="fill: #1763b8" transform="translate(119.342781 399.883024) scale(0.09 -0.09)">
     <defs>
      <path id="DejaVuSans-19" d="M 2113 2584 
Q 1688 2584 1439 2293 
Q 1191 2003 1191 1497 
Q 1191 994 1439 701 
Q 1688 409 2113 409 
Q 2538 409 2786 701 
Q 3034 994 3034 1497 
Q 3034 2003 2786 2293 
Q 2538 2584 2113 2584 
z
M 3366 4563 
L 3366 3988 
Q 3128 4100 2886 4159 
Q 2644 4219 2406 4219 
Q 1781 4219 1451 3797 
Q 1122 3375 1075 2522 
Q 1259 2794 1537 2939 
Q 1816 3084 2150 3084 
Q 2853 3084 3261 2657 
Q 3669 2231 3669 1497 
Q 3669 778 3244 343 
Q 2819 -91 2113 -91 
Q 1303 -91 875 529 
Q 447 1150 447 2328 
Q 447 3434 972 4092 
Q 1497 4750 2381 4750 
Q 2619 4750 2861 4703 
Q 3103 4656 3366 4563 
z
" transform="scale(0.015625)"/>
      <path id="DejaVuSans-3" transform="scale(0.015625)"/>
      <path id="DejaVuSans-b" d="M 1984 4856 
Q 1566 4138 1362 3434 
Q 1159 2731 1159 2009 
Q 1159 1288 1364 580 
Q 1569 -128 1984 -844 
L 1484 -844 
Q 1016 -109 783 600 
Q 550 1309 550 2009 
Q 550 2706 781 3412 
Q 1013 4119 1484 4856 
L 1984 4856 
z
" transform="scale(0.015625)"/>
      <path id="DejaVuSans-51" d="M 3513 2113 
L 3513 0 
L 2938 0 
L 2938 2094 
Q 2938 2591 2744 2837 
Q 2550 3084 2163 3084 
Q 1697 3084 1428 2787 
Q 1159 2491 1159 1978 
L 1159 0 
L 581 0 
L 581 3500 
L 1159 3500 
L 1159 2956 
Q 1366 3272 1645 3428 
Q 1925 3584 2291 3584 
Q 2894 3584 3203 3211 
Q 3513 2838 3513 2113 
z
" transform="scale(0.015625)"/>
      <path id="DejaVuSans-4f" d="M 603 4863 
L 1178 4863 
L 1178 0 
L 603 0 
L 603 4863 
z
" transform="scale(0.015625)"/>
      <path id="DejaVuSans-4c" d="M 603 3500 
L 1178 3500 
L 1178 0 
L 603 0 
L 603 3500 
z
M 603 4863 
L 1178 4863 
L 1178 4134 
L 603 4134 
L 603 4863 
z
" transform="scale(0.015625)"/>
      <path id="DejaVuSans-c" d="M 513 4856 
L 1013 4856 
Q 1481 4119 1714 3412 
Q 1947 2706 1947 2009 
Q 1947 1309 1714 600 
Q 1481 -109 1013 -844 
L 513 -844 
Q 928 -128 1133 580 
Q 1338 1288 1338 2009 
Q 1338 2731 1133 3434 
Q 928 4138 513 4856 
z
" transform="scale(0.015625)"/>
     </defs>
     <use xlink:href="#DejaVuSans-19"/>
     <use xlink:href="#DejaVuSans-7e" transform="translate(63.625 0)"/>
     <use xlink:href="#DejaVuSans-5" transform="translate(160.546875 0)"/>
     <use xlink:href="#DejaVuSans-3" transform="translate(206.546875 0)"/>
     <use xlink:href="#DejaVuSans-b" transform="translate(238.328125 0)"/>
     <use xlink:href="#DejaVuSans-46" transform="translate(277.34375 0)"/>
     <use xlink:href="#DejaVuSans-48" transform="translate(332.328125 0)"/>
     <use xlink:href="#DejaVuSans-51" transform="translate(393.859375 0)"/>
     <use xlink:href="#DejaVuSans-57" transform="translate(457.234375 0)"/>
     <use xlink:href="#DejaVuSans-48" transform="translate(496.4375 0)"/>
     <use xlink:href="#DejaVuSans-55" transform="translate(557.96875 0)"/>
     <use xlink:href="#DejaVuSans-4f" transform="translate(599.078125 0)"/>
     <use xlink:href="#DejaVuSans-4c" transform="translate(626.859375 0)"/>
     <use xlink:href="#DejaVuSans-51" transform="translate(654.640625 0)"/>
     <use xlink:href="#DejaVuSans-48" transform="translate(718.015625 0)"/>
     <use xlink:href="#DejaVuSans-56" transform="translate(779.546875 0)"/>
     <use xlink:href="#DejaVuSans-c" transform="translate(831.640625 0)"/>
    </g>
   </g>
   <g id="patch_10">
    <path d="M 131.040462 183.656349 
Q 131.040462 199.407345 131.040462 215.15834 
" style="fill: none; stroke: #1763b8; stroke-width: 0.9; stroke-linecap: round"/>
    <path d="M 129.240462 187.256349 
L 131.040462 183.656349 
L 132.840462 187.256349 
" style="fill: none; stroke: #1763b8; stroke-width: 0.9; stroke-linecap: round"/>
    <path d="M 132.840462 211.55834 
L 131.040462 215.15834 
L 129.240462 211.55834 
" style="fill: none; stroke: #1763b8; stroke-width: 0.9; stroke-linecap: round"/>
   </g>
   <g id="text_5">
    <!-- 2½" -->
    <g style="fill: #1763b8" transform="translate(135.531627 207.66922) rotate(-90) scale(0.08 -0.08)">
     <defs>
      <path id="DejaVuSans-7f" d="M 488 2431 
L 1125 2431 
L 1125 4341 
L 428 4213 
L 428 4575 
L 1147 4697 
L 1575 4697 
L 1575 2431 
L 2216 2431 
L 2216 2088 
L 488 2088 
L 488 2431 
z
M 4472 356 
L 5797 356 
L 5797 0 
L 3928 0 
L 3928 343 
Q 4034 440 4231 615 
Q 5306 1568 5306 1862 
Q 5306 2068 5143 2194 
Q 4981 2321 4715 2321 
Q 4553 2321 4362 2266 
Q 4172 2212 3947 2103 
L 3947 2487 
Q 4187 2575 4395 2618 
Q 4603 2662 4781 2662 
Q 5234 2662 5506 2456 
Q 5778 2250 5778 1912 
Q 5778 1478 4743 590 
Q 4568 440 4472 356 
z
M 4307 4750 
L 4807 4750 
L 1894 -91 
L 1394 -91 
L 4307 4750 
z
" transform="scale(0.015625)"/>
     </defs>
     <use xlink:href="#DejaVuSans-15"/>
     <use xlink:href="#DejaVuSans-7f" transform="translate(63.625 0)"/>
     <use xlink:href="#DejaVuSans-5" transform="translate(160.546875 0)"/>
    </g>
   </g>
   <g id="patch_11">
    <path d="M 58.607562 142.62911 
Q 86.67109 152.260172 114.734619 161.891234 
" style="fill: none; stroke: #3a2a1a; stroke-width: 0.6; stroke-linecap: round"/>
   </g>
   <g id="text_6">
    <!-- leg (¾" stock) -->
    <g style="fill: #3a2a1a" transform="translate(8.64 137.938226) scale(0.085 -0.085)">
     <defs>
      <path id="DejaVuSans-4a" d="M 2906 1791 
Q 2906 2416 2648 2759 
Q 2391 3103 1925 3103 
Q 1463 3103 1205 2759 
Q 947 2416 947 1791 
Q 947 1169 1205 825 
Q 1463 481 1925 481 
Q 2391 481 2648 825 
Q 2906 1169 2906 1791 
z
M 3481 434 
Q 3481 -459 3084 -895 
Q 2688 -1331 1869 -1331 
Q 1566 -1331 1297 -1286 
Q 1028 -1241 775 -1147 
L 775 -588 
Q 1028 -725 1275 -790 
Q 1522 -856 1778 -856 
Q 2344 -856 2625 -561 
Q 2906 -266 2906 331 
L 2906 616 
Q 2728 306 2450 153 
Q 2172 0 1784 0 
Q 1141 0 747 490 
Q 353 981 353 1791 
Q 353 2603 747 3093 
Q 1141 3584 1784 3584 
Q 2172 3584 2450 3431 
Q 2728 3278 2906 2969 
L 2906 3500 
L 3481 3500 
L 3481 434 
z
" transform="scale(0.015625)"/>
      <path id="DejaVuSans-80" d="M 1638 3500 
Q 1925 3444 2083 3273 
Q 2241 3103 2241 2847 
Q 2241 2459 1944 2250 
Q 1647 2041 1094 2041 
Q 916 2041 720 2073 
Q 525 2106 306 2169 
L 306 2547 
Q 469 2463 655 2422 
Q 841 2381 1050 2381 
Q 1391 2381 1578 2504 
Q 1766 2628 1766 2847 
Q 1766 3078 1592 3197 
Q 1419 3316 1081 3316 
L 813 3316 
L 813 3653 
L 1106 3653 
Q 1400 3653 1551 3751 
Q 1703 3850 1703 4038 
Q 1703 4219 1547 4314 
Q 1391 4409 1094 4409 
Q 969 4409 809 4381 
Q 650 4353 397 4281 
L 397 4641 
Q 625 4694 825 4722 
Q 1025 4750 1197 4750 
Q 1647 4750 1911 4565 
Q 2175 4381 2175 4072 
Q 2175 3856 2034 3706 
Q 1894 3556 1638 3500 
z
M 5125 2231 
L 4159 921 
L 5125 921 
L 5125 2231 
z
M 5056 2609 
L 5575 2609 
L 5575 921 
L 5997 921 
L 5997 581 
L 5575 581 
L 5575 0 
L 5125 0 
L 5125 581 
L 3831 581 
L 3831 959 
L 5056 2609 
z
M 4307 4750 
L 4807 4750 
L 1894 -91 
L 1394 -91 
L 4307 4750 
z
" transform="scale(0.015625)"/>
      <path id="DejaVuSans-52" d="M 1959 3097 
Q 1497 3097 1228 2736 
Q 959 2375 959 1747 
Q 959 1119 1226 758 
Q 1494 397 1959 397 
Q 2419 397 2687 759 
Q 2956 1122 2956 1747 
Q 2956 2369 2687 2733 
Q 2419 3097 1959 3097 
z
M 1959 3584 
Q 2709 3584 3137 3096 
Q 3566 2609 3566 1747 
Q 3566 888 3137 398 
Q 2709 -91 1959 -91 
Q 1206 -91 779 398 
Q 353 888 353 1747 
Q 353 2609 779 3096 
Q 1206 3584 1959 3584 
z
" transform="scale(0.015625)"/>
      <path id="DejaVuSans-4e" d="M 581 4863 
L 1159 4863 
L 1159 1991 
L 2875 3500 
L 3609 3500 
L 1753 1863 
L 3688 0 
L 2938 0 
L 1159 1709 
L 1159 0 
L 581 0 
L 581 4863 
z
" transform="scale(0.015625)"/>
     </defs>
     <use xlink:href="#DejaVuSans-4f"/>
     <use xlink:href="#DejaVuSans-48" transform="translate(27.78125 0)"/>
     <use xlink:href="#DejaVuSans-4a" transform="translate(89.3125 0)"/>
     <use xlink:href="#DejaVuSans-3" transform="translate(152.796875 0)"/>
     <use xlink:href="#DejaVuSans-b" transform="translate(184.578125 0)"/>
     <use xlink:href="#DejaVuSans-80" transform="translate(223.59375 0)"/>
     <use xlink:href="#DejaVuSans-5" transform="translate(320.515625 0)"/>
     <use xlink:href="#DejaVuSans-3" transform="translate(366.515625 0)"/>
     <use xlink:href="#DejaVuSans-56" transform="translate(398.296875 0)"/>
     <use xlink:href="#DejaVuSans-57" transform="translate(450.390625 0)"/>
     <use xlink:href="#DejaVuSans-52" transform="translate(489.59375 0)"/>
     <use xlink:href="#DejaVuSans-46" transform="translate(550.78125 0)"/>
     <use xlink:href="#DejaVuSans-4e" transform="translate(605.765625 0)"/>
     <use xlink:href="#DejaVuSans-c" transform="translate(663.671875 0)"/>
    </g>
   </g>
   <g id="text_7">
    <!-- End elevation -->
    <g style="fill: #3a2a1a" transform="translate(107.99495 16.998281) scale(0.11 -0.11)">
     <defs>
      <path id="DejaVuSans-28" d="M 628 4666 
L 3578 4666 
L 3578 4134 
L 1259 4134 
L 1259 2753 
L 3481 2753 
L 3481 2222 
L 1259 2222 
L 1259 531 
L 3634 531 
L 3634 0 
L 628 0 
L 628 4666 
z
" transform="scale(0.015625)"/>
      <path id="DejaVuSans-47" d="M 2906 2969 
L 2906 4863 
L 3481 4863 
L 3481 0 
L 2906 0 
L 2906 525 
Q 2725 213 2448 61 
Q 2172 -91 1784 -91 
Q 1150 -91 751 415 
Q 353 922 353 1747 
Q 353 2572 751 3078 
Q 1150 3584 1784 3584 
Q 2172 3584 2448 3432 
Q 2725 3281 2906 2969 
z
M 947 1747 
Q 947 1113 1208 752 
Q 1469 391 1925 391 
Q 2381 391 2643 752 
Q 2906 1113 2906 1747 
Q 2906 2381 2643 2742 
Q 2381 3103 1925 3103 
Q 1469 3103 1208 2742 
Q 947 2381 947 1747 
z
" transform="scale(0.015625)"/>
      <path id="DejaVuSans-59" d="M 191 3500 
L 800 3500 
L 1894 563 
L 2988 3500 
L 3597 3500 
L 2284 0 
L 1503 0 
L 191 3500 
z
" transform="scale(0.015625)"/>
      <path id="DejaVuSans-44" d="M 2194 1759 
Q 1497 1759 1228 1600 
Q 959 1441 959 1056 
Q 959 750 1161 570 
Q 1363 391 1709 391 
Q 2188 391 2477 730 
Q 2766 1069 2766 1631 
L 2766 1759 
L 2194 1759 
z
M 3341 1997 
L 3341 0 
L 2766 0 
L 2766 531 
Q 2569 213 2275 61 
Q 1981 -91 1556 -91 
Q 1019 -91 701 211 
Q 384 513 384 1019 
Q 384 1609 779 1909 
Q 1175 2209 1959 2209 
L 2766 2209 
L 2766 2266 
Q 2766 2663 2505 2880 
Q 2244 3097 1772 3097 
Q 1472 3097 1187 3025 
Q 903 2953 641 2809 
L 641 3341 
Q 956 3463 1253 3523 
Q 1550 3584 1831 3584 
Q 2591 3584 2966 3190 
Q 3341 2797 3341 1997 
z
" transform="scale(0.015625)"/>
     </defs>
     <use xlink:href="#DejaVuSans-28"/>
     <use xlink:href="#DejaVuSans-51" transform="translate(63.1875 0)"/>
     <use xlink:href="#DejaVuSans-47" transform="translate(126.5625 0)"/>
     <use xlink:href="#DejaVuSans-3" transform="translate(190.046875 0)"/>
     <use xlink:href="#DejaVuSans-48" transform="translate(221.828125 0)"/>
     <use xlink:href="#DejaVuSans-4f" transform="translate(283.359375 0)"/>
     <use xlink:href="#DejaVuSans-48" transform="translate(311.140625 0)"/>
     <use xlink:href="#DejaVuSans-59" transform="translate(372.671875 0)"/>
     <use xlink:href="#DejaVuSans-44" transform="translate(431.859375 0)"/>
     <use xlink:href="#DejaVuSans-57" transform="translate(493.140625 0)"/>
     <use xlink:href="#DejaVuSans-4c" transform="translate(532.34375 0)"/>
     <use xlink:href="#DejaVuSans-52" transform="translate(560.125 0)"/>
     <use xlink:href="#DejaVuSans-51" transform="translate(621.3125 0)"/>
    </g>
   </g>
  </g>
 </g>
 <defs>
  <clipPath id="pe6c0859308">
   <rect x="74.757633" y="26.998281" width="141.79026" height="376.992"/>
  </clipPath>
 </defs>
</svg>
