<?xml version="1.0" encoding="utf-8" standalone="no"?>
<!DOCTYPE svg PUBLIC "-//W3C//DTD SVG 1.1//EN"
  "http://www.w3.org/Graphics/SVG/1.1/DTD/svg11.dtd">
<svg xmlns:xlink="http://www.w3.org/1999/xlink" width="449.25681pt" height="222.133578pt" viewBox="0 0 449.25681 222.133578" xmlns="http://www.w3.org/2000/svg" version="1.1">
 <metadata>
  <rdf:RDF xmlns:dc="http://purl.org/dc/elements/1.1/" xmlns:cc="http://creativecommons.org/ns#" xmlns:rdf="http://www.w3.org/1999/02/22-rdf-syntax-ns#">
   <cc:Work>
    <dc:type rdf:resource="http://purl.org/dc/dcmitype/StillImage"/>
    <dc:date>2026-06-29T22:07:56.034784</dc:date>
    <dc:format>image/svg+xml</dc:format>
    <dc:creator>
     <cc:Agent>
      <dc:title>Matplotlib v3.11.0, https://matplotlib.org/</dc:title>
     </cc:Agent>
    </dc:creator>
   </cc:Work>
  </rdf:RDF>
 </metadata>
 <defs>
  <style type="text/css">*{stroke-linejoin: round; stroke-linecap: butt}</style>
 </defs>
 <g id="figure_1">
  <g id="patch_1">
   <path d="M 0 222.133578 
L 449.25681 222.133578 
L 449.25681 0 
L 0 0 
z
" style="fill: #ffffff"/>
  </g>
  <g id="axes_1">
   <g id="patch_2">
    <path d="M 47.738601 96.5401 
L 47.738601 82.5857 
L 410.28453 72.119901 
L 410.28453 107.005899 
z
" clip-path="url(#pd2576f41aa)" style="fill: #d8a673; stroke: #3a2a1a; stroke-width: 1.2; stroke-linejoin: miter"/>
   </g>
   <g id="patch_3">
    <path d="M 264.873383 76.317559 
L 296.772137 75.396721 
L 280.032722 103.559211 
L 251.080588 102.652948 
z
" clip-path="url(#pd2576f41aa)" style="fill: url(#hdd0d5771ab); opacity: 0.9; stroke: #3a2a1a; stroke-width: 0.8; stroke-linejoin: miter"/>
   </g>
   <g id="patch_4">
    <path d="M 52.622641 88.080695 
C 51.883366 87.653874 51.09132 87.325798 50.266766 87.104859 
C 49.442212 86.883921 48.592242 86.77202 47.738601 86.77202 
" clip-path="url(#pd2576f41aa)" style="fill: none; stroke: #1763b8; stroke-width: 0.9; stroke-linejoin: miter"/>
   </g>
   <g id="patch_5">
    <path d="M 47.738601 186.545975 
L 410.28453 186.545975 
L 410.28453 176.080176 
L 47.738601 176.080176 
z
" clip-path="url(#pd2576f41aa)" style="fill: #d8a673; stroke: #3a2a1a; stroke-width: 1.2; stroke-linejoin: miter"/>
   </g>
   <g id="patch_6">
    <path d="M 256.312042 181.313075 
L 281.429961 181.313075 
L 281.429961 176.080176 
L 256.312042 176.080176 
z
" clip-path="url(#pd2576f41aa)" style="fill: url(#h6633a5edc9); stroke: #3a2a1a; stroke-width: 1.2; stroke-linejoin: miter"/>
   </g>
   <g id="line2d_1">
    <path d="M 264.873383 76.317559 
L 251.080588 102.652948 
" clip-path="url(#pd2576f41aa)" style="fill: none; stroke: #3a2a1a; stroke-width: 0.9; stroke-linecap: square"/>
   </g>
   <g id="line2d_2">
    <path d="M 296.772137 75.396721 
L 280.032722 103.559211 
" clip-path="url(#pd2576f41aa)" style="fill: none; stroke: #3a2a1a; stroke-width: 0.9; stroke-linecap: square"/>
   </g>
   <g id="line2d_3">
    <path d="M 410.28453 72.119901 
L 390.143089 107.005899 
" clip-path="url(#pd2576f41aa)" style="fill: none; stroke-dasharray: 4.07,1.76; stroke-dashoffset: 0; stroke: #1763b8; stroke-width: 1.1"/>
   </g>
   <g id="line2d_4">
    <path d="M 55.795178 82.5857 
L 47.738601 96.5401 
" clip-path="url(#pd2576f41aa)" style="fill: none; stroke-dasharray: 4.07,1.76; stroke-dashoffset: 0; stroke: #1763b8; stroke-width: 1.1"/>
   </g>
   <g id="line2d_5">
    <path d="M 47.738601 82.5857 
L 47.468818 73.240146 
" clip-path="url(#pd2576f41aa)" style="fill: none; stroke: #1763b8; stroke-width: 0.5; stroke-linecap: square"/>
   </g>
   <g id="line2d_6">
    <path d="M 264.873383 76.317559 
L 264.6036 66.972005 
" clip-path="url(#pd2576f41aa)" style="fill: none; stroke: #1763b8; stroke-width: 0.5; stroke-linecap: square"/>
   </g>
   <g id="line2d_7">
    <path d="M 47.738601 82.5857 
L 47.066157 59.291557 
" clip-path="url(#pd2576f41aa)" style="fill: none; stroke: #1763b8; stroke-width: 0.5; stroke-linecap: square"/>
   </g>
   <g id="line2d_8">
    <path d="M 296.772137 75.396721 
L 296.099693 52.102579 
" clip-path="url(#pd2576f41aa)" style="fill: none; stroke: #1763b8; stroke-width: 0.5; stroke-linecap: square"/>
   </g>
   <g id="line2d_9">
    <path d="M 55.795178 96.5401 
L 55.502663 105.88497 
" clip-path="url(#pd2576f41aa)" style="fill: none; stroke: #1763b8; stroke-width: 0.5; stroke-linecap: square"/>
   </g>
   <g id="line2d_10">
    <path d="M 251.080588 102.652948 
L 250.788073 111.997818 
" clip-path="url(#pd2576f41aa)" style="fill: none; stroke: #1763b8; stroke-width: 0.5; stroke-linecap: square"/>
   </g>
   <g id="line2d_11">
    <path d="M 55.795178 96.5401 
L 55.066075 119.832538 
" clip-path="url(#pd2576f41aa)" style="fill: none; stroke: #1763b8; stroke-width: 0.5; stroke-linecap: square"/>
   </g>
   <g id="line2d_12">
    <path d="M 280.032722 103.559211 
L 279.30362 126.851649 
" clip-path="url(#pd2576f41aa)" style="fill: none; stroke: #1763b8; stroke-width: 0.5; stroke-linecap: square"/>
   </g>
   <g id="line2d_13">
    <path d="M 47.738601 82.5857 
L 46.582964 42.553251 
" clip-path="url(#pd2576f41aa)" style="fill: none; stroke: #1763b8; stroke-width: 0.5; stroke-linecap: square"/>
   </g>
   <g id="line2d_14">
    <path d="M 410.28453 72.119901 
L 409.128892 32.087452 
" clip-path="url(#pd2576f41aa)" style="fill: none; stroke: #1763b8; stroke-width: 0.5; stroke-linecap: square"/>
   </g>
   <g id="line2d_15">
    <path d="M 47.738601 96.5401 
L 61.972089 96.5401 
" clip-path="url(#pd2576f41aa)" style="fill: none; stroke: #1763b8; stroke-width: 0.5; stroke-linecap: square"/>
   </g>
   <g id="line2d_16">
    <path d="M 47.738601 82.5857 
L 61.972089 82.5857 
" clip-path="url(#pd2576f41aa)" style="fill: none; stroke: #1763b8; stroke-width: 0.5; stroke-linecap: square"/>
   </g>
   <g id="line2d_17">
    <path d="M 410.28453 107.005899 
L 432.890656 107.005899 
" clip-path="url(#pd2576f41aa)" style="fill: none; stroke: #1763b8; stroke-width: 0.5; stroke-linecap: square"/>
   </g>
   <g id="line2d_18">
    <path d="M 410.28453 72.119901 
L 432.890656 72.119901 
" clip-path="url(#pd2576f41aa)" style="fill: none; stroke: #1763b8; stroke-width: 0.5; stroke-linecap: square"/>
   </g>
   <g id="line2d_19">
    <path d="M 410.28453 186.545975 
L 398.841922 186.545975 
" clip-path="url(#pd2576f41aa)" style="fill: none; stroke: #1763b8; stroke-width: 0.5; stroke-linecap: square"/>
   </g>
   <g id="line2d_20">
    <path d="M 410.28453 176.080176 
L 398.841922 176.080176 
" clip-path="url(#pd2576f41aa)" style="fill: none; stroke: #1763b8; stroke-width: 0.5; stroke-linecap: square"/>
   </g>
   <g id="line2d_21">
    <path d="M 281.429961 181.313075 
L 272.778234 181.313075 
" clip-path="url(#pd2576f41aa)" style="fill: none; stroke: #1763b8; stroke-width: 0.5; stroke-linecap: square"/>
   </g>
   <g id="line2d_22">
    <path d="M 281.429961 176.080176 
L 272.778234 176.080176 
" clip-path="url(#pd2576f41aa)" style="fill: none; stroke: #1763b8; stroke-width: 0.5; stroke-linecap: square"/>
   </g>
   <g id="patch_7">
    <path d="M 410.28453 72.119901 
L 410.28453 107.005899 
L 390.143089 107.005899 
z
" clip-path="url(#pd2576f41aa)" style="fill: url(#hf281ca2713); stroke: #3a2a1a; stroke-width: 0.6; stroke-linejoin: miter"/>
   </g>
   <g id="patch_8">
    <path d="M 47.738601 82.5857 
L 55.795178 82.5857 
L 47.738601 96.5401 
z
" clip-path="url(#pd2576f41aa)" style="fill: url(#hf281ca2713); stroke: #3a2a1a; stroke-width: 0.6; stroke-linejoin: miter"/>
   </g>
   <g id="text_1">
    <!-- waste -->
    <g style="fill: #5b4d3f" transform="translate(393.954271 96.235091) scale(0.065 -0.065)">
     <defs>
      <path id="DejaVuSans-5a" d="M 269 3500 
L 844 3500 
L 1563 769 
L 2278 3500 
L 2956 3500 
L 3675 769 
L 4391 3500 
L 4966 3500 
L 4050 0 
L 3372 0 
L 2619 2869 
L 1863 0 
L 1184 0 
L 269 3500 
z
" transform="scale(0.015625)"/>
      <path id="DejaVuSans-44" d="M 2194 1759 
Q 1497 1759 1228 1600 
Q 959 1441 959 1056 
Q 959 750 1161 570 
Q 1363 391 1709 391 
Q 2188 391 2477 730 
Q 2766 1069 2766 1631 
L 2766 1759 
L 2194 1759 
z
M 3341 1997 
L 3341 0 
L 2766 0 
L 2766 531 
Q 2569 213 2275 61 
Q 1981 -91 1556 -91 
Q 1019 -91 701 211 
Q 384 513 384 1019 
Q 384 1609 779 1909 
Q 1175 2209 1959 2209 
L 2766 2209 
L 2766 2266 
Q 2766 2663 2505 2880 
Q 2244 3097 1772 3097 
Q 1472 3097 1187 3025 
Q 903 2953 641 2809 
L 641 3341 
Q 956 3463 1253 3523 
Q 1550 3584 1831 3584 
Q 2591 3584 2966 3190 
Q 3341 2797 3341 1997 
z
" transform="scale(0.015625)"/>
      <path id="DejaVuSans-56" d="M 2834 3397 
L 2834 2853 
Q 2591 2978 2328 3040 
Q 2066 3103 1784 3103 
Q 1356 3103 1142 2972 
Q 928 2841 928 2578 
Q 928 2378 1081 2264 
Q 1234 2150 1697 2047 
L 1894 2003 
Q 2506 1872 2764 1633 
Q 3022 1394 3022 966 
Q 3022 478 2636 193 
Q 2250 -91 1575 -91 
Q 1294 -91 989 -36 
Q 684 19 347 128 
L 347 722 
Q 666 556 975 473 
Q 1284 391 1588 391 
Q 1994 391 2212 530 
Q 2431 669 2431 922 
Q 2431 1156 2273 1281 
Q 2116 1406 1581 1522 
L 1381 1569 
Q 847 1681 609 1914 
Q 372 2147 372 2553 
Q 372 3047 722 3315 
Q 1072 3584 1716 3584 
Q 2034 3584 2315 3537 
Q 2597 3491 2834 3397 
z
" transform="scale(0.015625)"/>
      <path id="DejaVuSans-57" d="M 1172 4494 
L 1172 3500 
L 2356 3500 
L 2356 3053 
L 1172 3053 
L 1172 1153 
Q 1172 725 1289 603 
Q 1406 481 1766 481 
L 2356 481 
L 2356 0 
L 1766 0 
Q 1100 0 847 248 
Q 594 497 594 1153 
L 594 3053 
L 172 3053 
L 172 3500 
L 594 3500 
L 594 4494 
L 1172 4494 
z
" transform="scale(0.015625)"/>
      <path id="DejaVuSans-48" d="M 3597 1894 
L 3597 1613 
L 953 1613 
Q 991 1019 1311 708 
Q 1631 397 2203 397 
Q 2534 397 2845 478 
Q 3156 559 3463 722 
L 3463 178 
Q 3153 47 2828 -22 
Q 2503 -91 2169 -91 
Q 1331 -91 842 396 
Q 353 884 353 1716 
Q 353 2575 817 3079 
Q 1281 3584 2069 3584 
Q 2775 3584 3186 3129 
Q 3597 2675 3597 1894 
z
M 3022 2063 
Q 3016 2534 2758 2815 
Q 2500 3097 2075 3097 
Q 1594 3097 1305 2825 
Q 1016 2553 972 2059 
L 3022 2063 
z
" transform="scale(0.015625)"/>
     </defs>
     <use xlink:href="#DejaVuSans-5a"/>
     <use xlink:href="#DejaVuSans-44" transform="translate(81.78125 0)"/>
     <use xlink:href="#DejaVuSans-56" transform="translate(143.0625 0)"/>
     <use xlink:href="#DejaVuSans-57" transform="translate(195.15625 0)"/>
     <use xlink:href="#DejaVuSans-48" transform="translate(234.359375 0)"/>
    </g>
   </g>
   <g id="text_2">
    <!-- 30° off sq. -->
    <g style="fill: #1763b8" transform="translate(28.931932 82.029699) scale(0.09 -0.09)">
     <defs>
      <path id="DejaVuSans-16" d="M 2597 2516 
Q 3050 2419 3304 2112 
Q 3559 1806 3559 1356 
Q 3559 666 3084 287 
Q 2609 -91 1734 -91 
Q 1441 -91 1130 -33 
Q 819 25 488 141 
L 488 750 
Q 750 597 1062 519 
Q 1375 441 1716 441 
Q 2309 441 2620 675 
Q 2931 909 2931 1356 
Q 2931 1769 2642 2001 
Q 2353 2234 1838 2234 
L 1294 2234 
L 1294 2753 
L 1863 2753 
Q 2328 2753 2575 2939 
Q 2822 3125 2822 3475 
Q 2822 3834 2567 4026 
Q 2313 4219 1838 4219 
Q 1578 4219 1281 4162 
Q 984 4106 628 3988 
L 628 4550 
Q 988 4650 1302 4700 
Q 1616 4750 1894 4750 
Q 2613 4750 3031 4423 
Q 3450 4097 3450 3541 
Q 3450 3153 3228 2886 
Q 3006 2619 2597 2516 
z
" transform="scale(0.015625)"/>
      <path id="DejaVuSans-13" d="M 2034 4250 
Q 1547 4250 1301 3770 
Q 1056 3291 1056 2328 
Q 1056 1369 1301 889 
Q 1547 409 2034 409 
Q 2525 409 2770 889 
Q 3016 1369 3016 2328 
Q 3016 3291 2770 3770 
Q 2525 4250 2034 4250 
z
M 2034 4750 
Q 2819 4750 3233 4129 
Q 3647 3509 3647 2328 
Q 3647 1150 3233 529 
Q 2819 -91 2034 -91 
Q 1250 -91 836 529 
Q 422 1150 422 2328 
Q 422 3509 836 4129 
Q 1250 4750 2034 4750 
z
" transform="scale(0.015625)"/>
      <path id="DejaVuSans-72" d="M 1600 4347 
Q 1350 4347 1178 4173 
Q 1006 4000 1006 3750 
Q 1006 3503 1178 3333 
Q 1350 3163 1600 3163 
Q 1850 3163 2022 3333 
Q 2194 3503 2194 3750 
Q 2194 3997 2020 4172 
Q 1847 4347 1600 4347 
z
M 1600 4750 
Q 1800 4750 1984 4673 
Q 2169 4597 2303 4453 
Q 2447 4313 2519 4134 
Q 2591 3956 2591 3750 
Q 2591 3338 2302 3052 
Q 2013 2766 1594 2766 
Q 1172 2766 890 3047 
Q 609 3328 609 3750 
Q 609 4169 896 4459 
Q 1184 4750 1600 4750 
z
" transform="scale(0.015625)"/>
      <path id="DejaVuSans-3" transform="scale(0.015625)"/>
      <path id="DejaVuSans-52" d="M 1959 3097 
Q 1497 3097 1228 2736 
Q 959 2375 959 1747 
Q 959 1119 1226 758 
Q 1494 397 1959 397 
Q 2419 397 2687 759 
Q 2956 1122 2956 1747 
Q 2956 2369 2687 2733 
Q 2419 3097 1959 3097 
z
M 1959 3584 
Q 2709 3584 3137 3096 
Q 3566 2609 3566 1747 
Q 3566 888 3137 398 
Q 2709 -91 1959 -91 
Q 1206 -91 779 398 
Q 353 888 353 1747 
Q 353 2609 779 3096 
Q 1206 3584 1959 3584 
z
" transform="scale(0.015625)"/>
      <path id="DejaVuSans-13ae" d="M 4531 4863 
L 4531 4384 
L 3981 4384 
Q 3672 4384 3551 4259 
Q 3431 4134 3431 3809 
L 3431 3500 
L 4378 3500 
L 4378 3053 
L 3431 3053 
L 3431 0 
L 2853 0 
L 2853 3053 
L 1275 3053 
L 1275 0 
L 697 0 
L 697 3053 
L 147 3053 
L 147 3500 
L 697 3500 
L 697 3744 
Q 697 4328 969 4595 
Q 1241 4863 1831 4863 
L 2375 4863 
L 2375 4384 
L 1825 4384 
Q 1516 4384 1394 4259 
Q 1275 4134 1275 3809 
L 1275 3500 
L 2853 3500 
L 2853 3744 
Q 2853 4328 3125 4595 
Q 3397 4863 3988 4863 
L 4531 4863 
z
" transform="scale(0.015625)"/>
      <path id="DejaVuSans-54" d="M 947 1747 
Q 947 1113 1208 752 
Q 1469 391 1925 391 
Q 2381 391 2643 752 
Q 2906 1113 2906 1747 
Q 2906 2381 2643 2742 
Q 2381 3103 1925 3103 
Q 1469 3103 1208 2742 
Q 947 2381 947 1747 
z
M 2906 525 
Q 2725 213 2448 61 
Q 2172 -91 1784 -91 
Q 1150 -91 751 415 
Q 353 922 353 1747 
Q 353 2572 751 3078 
Q 1150 3584 1784 3584 
Q 2172 3584 2448 3432 
Q 2725 3281 2906 2969 
L 2906 3500 
L 3481 3500 
L 3481 -1331 
L 2906 -1331 
L 2906 525 
z
" transform="scale(0.015625)"/>
      <path id="DejaVuSans-11" d="M 684 794 
L 1344 794 
L 1344 0 
L 684 0 
L 684 794 
z
" transform="scale(0.015625)"/>
     </defs>
     <use xlink:href="#DejaVuSans-16"/>
     <use xlink:href="#DejaVuSans-13" transform="translate(63.625 0)"/>
     <use xlink:href="#DejaVuSans-72" transform="translate(127.25 0)"/>
     <use xlink:href="#DejaVuSans-3" transform="translate(177.25 0)"/>
     <use xlink:href="#DejaVuSans-52" transform="translate(209.03125 0)"/>
     <use xlink:href="#DejaVuSans-13ae" transform="translate(270.21875 0)"/>
     <use xlink:href="#DejaVuSans-3" transform="translate(339.109375 0)"/>
     <use xlink:href="#DejaVuSans-56" transform="translate(370.890625 0)"/>
     <use xlink:href="#DejaVuSans-54" transform="translate(422.984375 0)"/>
     <use xlink:href="#DejaVuSans-11" transform="translate(486.46875 0)"/>
    </g>
   </g>
   <g id="patch_9">
    <path d="M 42.968673 99.870957 
Q 45.814873 97.696333 48.661072 95.521708 
" style="fill: none; stroke: #3a2a1a; stroke-width: 0.6; stroke-linecap: round"/>
   </g>
   <g id="text_3">
    <!-- finished -->
    <g style="fill: #3a2a1a" transform="translate(8.64 110.392889) scale(0.085 -0.085)">
     <defs>
      <path id="DejaVuSans-13af" d="M 3431 3500 
L 3431 0 
L 2853 0 
L 2853 3053 
L 1275 3053 
L 1275 0 
L 697 0 
L 697 3053 
L 147 3053 
L 147 3500 
L 697 3500 
L 697 3744 
Q 697 4316 967 4589 
Q 1238 4863 1797 4863 
L 2375 4863 
L 2375 4384 
L 1825 4384 
Q 1516 4384 1395 4259 
Q 1275 4134 1275 3809 
L 1275 3500 
L 3431 3500 
z
M 2853 4856 
L 3431 4856 
L 3431 4128 
L 2853 4128 
L 2853 4856 
z
" transform="scale(0.015625)"/>
      <path id="DejaVuSans-51" d="M 3513 2113 
L 3513 0 
L 2938 0 
L 2938 2094 
Q 2938 2591 2744 2837 
Q 2550 3084 2163 3084 
Q 1697 3084 1428 2787 
Q 1159 2491 1159 1978 
L 1159 0 
L 581 0 
L 581 3500 
L 1159 3500 
L 1159 2956 
Q 1366 3272 1645 3428 
Q 1925 3584 2291 3584 
Q 2894 3584 3203 3211 
Q 3513 2838 3513 2113 
z
" transform="scale(0.015625)"/>
      <path id="DejaVuSans-4c" d="M 603 3500 
L 1178 3500 
L 1178 0 
L 603 0 
L 603 3500 
z
M 603 4863 
L 1178 4863 
L 1178 4134 
L 603 4134 
L 603 4863 
z
" transform="scale(0.015625)"/>
      <path id="DejaVuSans-4b" d="M 3513 2113 
L 3513 0 
L 2938 0 
L 2938 2094 
Q 2938 2591 2744 2837 
Q 2550 3084 2163 3084 
Q 1697 3084 1428 2787 
Q 1159 2491 1159 1978 
L 1159 0 
L 581 0 
L 581 4863 
L 1159 4863 
L 1159 2956 
Q 1366 3272 1645 3428 
Q 1925 3584 2291 3584 
Q 2894 3584 3203 3211 
Q 3513 2838 3513 2113 
z
" transform="scale(0.015625)"/>
      <path id="DejaVuSans-47" d="M 2906 2969 
L 2906 4863 
L 3481 4863 
L 3481 0 
L 2906 0 
L 2906 525 
Q 2725 213 2448 61 
Q 2172 -91 1784 -91 
Q 1150 -91 751 415 
Q 353 922 353 1747 
Q 353 2572 751 3078 
Q 1150 3584 1784 3584 
Q 2172 3584 2448 3432 
Q 2725 3281 2906 2969 
z
M 947 1747 
Q 947 1113 1208 752 
Q 1469 391 1925 391 
Q 2381 391 2643 752 
Q 2906 1113 2906 1747 
Q 2906 2381 2643 2742 
Q 2381 3103 1925 3103 
Q 1469 3103 1208 2742 
Q 947 2381 947 1747 
z
" transform="scale(0.015625)"/>
     </defs>
     <use xlink:href="#DejaVuSans-13af"/>
     <use xlink:href="#DejaVuSans-51" transform="translate(62.984375 0)"/>
     <use xlink:href="#DejaVuSans-4c" transform="translate(126.359375 0)"/>
     <use xlink:href="#DejaVuSans-56" transform="translate(154.140625 0)"/>
     <use xlink:href="#DejaVuSans-4b" transform="translate(206.234375 0)"/>
     <use xlink:href="#DejaVuSans-48" transform="translate(269.609375 0)"/>
     <use xlink:href="#DejaVuSans-47" transform="translate(331.140625 0)"/>
    </g>
    <!-- ≈62° -->
    <g style="fill: #3a2a1a" transform="translate(14.31707 120.594549) scale(0.085 -0.085)">
     <defs>
      <path id="DejaVuSans-cd2" d="M 4684 1947 
L 4684 1388 
Q 4356 1144 4076 1036 
Q 3797 928 3494 928 
Q 3150 928 2694 1113 
Q 2663 1125 2641 1134 
Q 2622 1141 2575 1159 
Q 2091 1350 1797 1350 
Q 1522 1350 1253 1231 
Q 984 1113 678 850 
L 678 1409 
Q 1006 1653 1286 1761 
Q 1566 1869 1869 1869 
Q 2213 1869 2672 1684 
Q 2706 1669 2722 1663 
Q 2741 1656 2788 1638 
Q 3272 1447 3566 1447 
Q 3834 1447 4098 1564 
Q 4363 1681 4684 1947 
z
M 4684 3163 
L 4684 2606 
Q 4356 2359 4076 2251 
Q 3797 2144 3494 2144 
Q 3150 2144 2694 2328 
Q 2663 2341 2641 2350 
Q 2622 2356 2575 2375 
Q 2091 2566 1797 2566 
Q 1522 2566 1253 2447 
Q 984 2328 678 2069 
L 678 2625 
Q 1006 2869 1286 2976 
Q 1566 3084 1869 3084 
Q 2213 3084 2672 2900 
Q 2703 2888 2719 2881 
Q 2741 2872 2788 2853 
Q 3272 2663 3566 2663 
Q 3834 2663 4098 2780 
Q 4363 2897 4684 3163 
z
" transform="scale(0.015625)"/>
      <path id="DejaVuSans-19" d="M 2113 2584 
Q 1688 2584 1439 2293 
Q 1191 2003 1191 1497 
Q 1191 994 1439 701 
Q 1688 409 2113 409 
Q 2538 409 2786 701 
Q 3034 994 3034 1497 
Q 3034 2003 2786 2293 
Q 2538 2584 2113 2584 
z
M 3366 4563 
L 3366 3988 
Q 3128 4100 2886 4159 
Q 2644 4219 2406 4219 
Q 1781 4219 1451 3797 
Q 1122 3375 1075 2522 
Q 1259 2794 1537 2939 
Q 1816 3084 2150 3084 
Q 2853 3084 3261 2657 
Q 3669 2231 3669 1497 
Q 3669 778 3244 343 
Q 2819 -91 2113 -91 
Q 1303 -91 875 529 
Q 447 1150 447 2328 
Q 447 3434 972 4092 
Q 1497 4750 2381 4750 
Q 2619 4750 2861 4703 
Q 3103 4656 3366 4563 
z
" transform="scale(0.015625)"/>
      <path id="DejaVuSans-15" d="M 1228 531 
L 3431 531 
L 3431 0 
L 469 0 
L 469 531 
Q 828 903 1448 1529 
Q 2069 2156 2228 2338 
Q 2531 2678 2651 2914 
Q 2772 3150 2772 3378 
Q 2772 3750 2511 3984 
Q 2250 4219 1831 4219 
Q 1534 4219 1204 4116 
Q 875 4013 500 3803 
L 500 4441 
Q 881 4594 1212 4672 
Q 1544 4750 1819 4750 
Q 2544 4750 2975 4387 
Q 3406 4025 3406 3419 
Q 3406 3131 3298 2873 
Q 3191 2616 2906 2266 
Q 2828 2175 2409 1742 
Q 1991 1309 1228 531 
z
" transform="scale(0.015625)"/>
     </defs>
     <use xlink:href="#DejaVuSans-cd2"/>
     <use xlink:href="#DejaVuSans-19" transform="translate(83.796875 0)"/>
     <use xlink:href="#DejaVuSans-15" transform="translate(147.421875 0)"/>
     <use xlink:href="#DejaVuSans-72" transform="translate(211.046875 0)"/>
    </g>
   </g>
   <g id="patch_10">
    <path d="M 371.488461 51.77888 
Q 385.948131 64.431092 400.407802 77.083304 
" style="fill: none; stroke: #3a2a1a; stroke-width: 0.6; stroke-linecap: round"/>
   </g>
   <g id="text_4">
    <!-- finished point ≈58° -->
    <g style="fill: #3a2a1a" transform="translate(321.433283 46.419442) scale(0.085 -0.085)">
     <defs>
      <path id="DejaVuSans-53" d="M 1159 525 
L 1159 -1331 
L 581 -1331 
L 581 3500 
L 1159 3500 
L 1159 2969 
Q 1341 3281 1617 3432 
Q 1894 3584 2278 3584 
Q 2916 3584 3314 3078 
Q 3713 2572 3713 1747 
Q 3713 922 3314 415 
Q 2916 -91 2278 -91 
Q 1894 -91 1617 61 
Q 1341 213 1159 525 
z
M 3116 1747 
Q 3116 2381 2855 2742 
Q 2594 3103 2138 3103 
Q 1681 3103 1420 2742 
Q 1159 2381 1159 1747 
Q 1159 1113 1420 752 
Q 1681 391 2138 391 
Q 2594 391 2855 752 
Q 3116 1113 3116 1747 
z
" transform="scale(0.015625)"/>
      <path id="DejaVuSans-18" d="M 691 4666 
L 3169 4666 
L 3169 4134 
L 1269 4134 
L 1269 2991 
Q 1406 3038 1543 3061 
Q 1681 3084 1819 3084 
Q 2600 3084 3056 2656 
Q 3513 2228 3513 1497 
Q 3513 744 3044 326 
Q 2575 -91 1722 -91 
Q 1428 -91 1123 -41 
Q 819 9 494 109 
L 494 744 
Q 775 591 1075 516 
Q 1375 441 1709 441 
Q 2250 441 2565 725 
Q 2881 1009 2881 1497 
Q 2881 1984 2565 2268 
Q 2250 2553 1709 2553 
Q 1456 2553 1204 2497 
Q 953 2441 691 2322 
L 691 4666 
z
" transform="scale(0.015625)"/>
      <path id="DejaVuSans-1b" d="M 2034 2216 
Q 1584 2216 1326 1975 
Q 1069 1734 1069 1313 
Q 1069 891 1326 650 
Q 1584 409 2034 409 
Q 2484 409 2743 651 
Q 3003 894 3003 1313 
Q 3003 1734 2745 1975 
Q 2488 2216 2034 2216 
z
M 1403 2484 
Q 997 2584 770 2862 
Q 544 3141 544 3541 
Q 544 4100 942 4425 
Q 1341 4750 2034 4750 
Q 2731 4750 3128 4425 
Q 3525 4100 3525 3541 
Q 3525 3141 3298 2862 
Q 3072 2584 2669 2484 
Q 3125 2378 3379 2068 
Q 3634 1759 3634 1313 
Q 3634 634 3220 271 
Q 2806 -91 2034 -91 
Q 1263 -91 848 271 
Q 434 634 434 1313 
Q 434 1759 690 2068 
Q 947 2378 1403 2484 
z
M 1172 3481 
Q 1172 3119 1398 2916 
Q 1625 2713 2034 2713 
Q 2441 2713 2670 2916 
Q 2900 3119 2900 3481 
Q 2900 3844 2670 4047 
Q 2441 4250 2034 4250 
Q 1625 4250 1398 4047 
Q 1172 3844 1172 3481 
z
" transform="scale(0.015625)"/>
     </defs>
     <use xlink:href="#DejaVuSans-13af"/>
     <use xlink:href="#DejaVuSans-51" transform="translate(62.984375 0)"/>
     <use xlink:href="#DejaVuSans-4c" transform="translate(126.359375 0)"/>
     <use xlink:href="#DejaVuSans-56" transform="translate(154.140625 0)"/>
     <use xlink:href="#DejaVuSans-4b" transform="translate(206.234375 0)"/>
     <use xlink:href="#DejaVuSans-48" transform="translate(269.609375 0)"/>
     <use xlink:href="#DejaVuSans-47" transform="translate(331.140625 0)"/>
     <use xlink:href="#DejaVuSans-3" transform="translate(394.625 0)"/>
     <use xlink:href="#DejaVuSans-53" transform="translate(426.40625 0)"/>
     <use xlink:href="#DejaVuSans-52" transform="translate(489.890625 0)"/>
     <use xlink:href="#DejaVuSans-4c" transform="translate(551.078125 0)"/>
     <use xlink:href="#DejaVuSans-51" transform="translate(578.859375 0)"/>
     <use xlink:href="#DejaVuSans-57" transform="translate(642.234375 0)"/>
     <use xlink:href="#DejaVuSans-3" transform="translate(681.4375 0)"/>
     <use xlink:href="#DejaVuSans-cd2" transform="translate(713.21875 0)"/>
     <use xlink:href="#DejaVuSans-18" transform="translate(797.015625 0)"/>
     <use xlink:href="#DejaVuSans-1b" transform="translate(860.640625 0)"/>
     <use xlink:href="#DejaVuSans-72" transform="translate(924.265625 0)"/>
    </g>
   </g>
   <g id="patch_11">
    <path d="M 263.646108 68.674871 
Q 156.084529 71.779906 48.522949 74.884941 
" style="fill: none; stroke: #1763b8; stroke-width: 0.9; stroke-linecap: round"/>
    <path d="M 259.995667 66.9795 
L 263.646108 68.674871 
L 260.099547 70.578001 
" style="fill: none; stroke: #1763b8; stroke-width: 0.9; stroke-linecap: round"/>
    <path d="M 52.17339 76.580312 
L 48.522949 74.884941 
L 52.06951 72.981811 
" style="fill: none; stroke: #1763b8; stroke-width: 0.9; stroke-linecap: round"/>
   </g>
   <g id="text_5">
    <!-- 15 9/16" -->
    <g style="fill: #1763b8" transform="translate(139.96521 71.681446) rotate(-1.653527) scale(0.075 -0.075)">
     <defs>
      <path id="DejaVuSans-14" d="M 794 531 
L 1825 531 
L 1825 4091 
L 703 3866 
L 703 4441 
L 1819 4666 
L 2450 4666 
L 2450 531 
L 3481 531 
L 3481 0 
L 794 0 
L 794 531 
z
" transform="scale(0.015625)"/>
      <path id="DejaVuSans-1c" d="M 703 97 
L 703 672 
Q 941 559 1184 500 
Q 1428 441 1663 441 
Q 2288 441 2617 861 
Q 2947 1281 2994 2138 
Q 2813 1869 2534 1725 
Q 2256 1581 1919 1581 
Q 1219 1581 811 2004 
Q 403 2428 403 3163 
Q 403 3881 828 4315 
Q 1253 4750 1959 4750 
Q 2769 4750 3195 4129 
Q 3622 3509 3622 2328 
Q 3622 1225 3098 567 
Q 2575 -91 1691 -91 
Q 1453 -91 1209 -44 
Q 966 3 703 97 
z
M 1959 2075 
Q 2384 2075 2632 2365 
Q 2881 2656 2881 3163 
Q 2881 3666 2632 3958 
Q 2384 4250 1959 4250 
Q 1534 4250 1286 3958 
Q 1038 3666 1038 3163 
Q 1038 2656 1286 2365 
Q 1534 2075 1959 2075 
z
" transform="scale(0.015625)"/>
      <path id="DejaVuSans-12" d="M 1625 4666 
L 2156 4666 
L 531 -594 
L 0 -594 
L 1625 4666 
z
" transform="scale(0.015625)"/>
      <path id="DejaVuSans-5" d="M 1147 4666 
L 1147 2931 
L 616 2931 
L 616 4666 
L 1147 4666 
z
M 2328 4666 
L 2328 2931 
L 1797 2931 
L 1797 4666 
L 2328 4666 
z
" transform="scale(0.015625)"/>
     </defs>
     <use xlink:href="#DejaVuSans-14"/>
     <use xlink:href="#DejaVuSans-18" transform="translate(63.625 0)"/>
     <use xlink:href="#DejaVuSans-3" transform="translate(127.25 0)"/>
     <use xlink:href="#DejaVuSans-1c" transform="translate(159.03125 0)"/>
     <use xlink:href="#DejaVuSans-12" transform="translate(222.65625 0)"/>
     <use xlink:href="#DejaVuSans-14" transform="translate(256.34375 0)"/>
     <use xlink:href="#DejaVuSans-19" transform="translate(319.96875 0)"/>
     <use xlink:href="#DejaVuSans-5" transform="translate(383.59375 0)"/>
    </g>
   </g>
   <g id="patch_12">
    <path d="M 295.1422 53.805444 
Q 171.631244 57.370899 48.120288 60.936353 
" style="fill: none; stroke: #1763b8; stroke-width: 0.9; stroke-linecap: round"/>
    <path d="M 291.49176 52.110074 
L 295.1422 53.805444 
L 291.595639 55.708575 
" style="fill: none; stroke: #1763b8; stroke-width: 0.9; stroke-linecap: round"/>
    <path d="M 51.770729 62.631724 
L 48.120288 60.936353 
L 51.666849 59.033223 
" style="fill: none; stroke: #1763b8; stroke-width: 0.9; stroke-linecap: round"/>
   </g>
   <g id="text_6">
    <!-- 17 7/8" -->
    <g style="fill: #1763b8" transform="translate(157.896869 57.203591) rotate(-1.653527) scale(0.075 -0.075)">
     <defs>
      <path id="DejaVuSans-1a" d="M 525 4666 
L 3525 4666 
L 3525 4397 
L 1831 0 
L 1172 0 
L 2766 4134 
L 525 4134 
L 525 4666 
z
" transform="scale(0.015625)"/>
     </defs>
     <use xlink:href="#DejaVuSans-14"/>
     <use xlink:href="#DejaVuSans-1a" transform="translate(63.625 0)"/>
     <use xlink:href="#DejaVuSans-3" transform="translate(127.25 0)"/>
     <use xlink:href="#DejaVuSans-1a" transform="translate(159.03125 0)"/>
     <use xlink:href="#DejaVuSans-12" transform="translate(222.65625 0)"/>
     <use xlink:href="#DejaVuSans-1b" transform="translate(256.34375 0)"/>
     <use xlink:href="#DejaVuSans-5" transform="translate(319.96875 0)"/>
    </g>
   </g>
   <g id="patch_13">
    <path d="M 249.834726 110.292628 
Q 153.197759 107.267686 56.560792 104.242744 
" style="fill: none; stroke: #1763b8; stroke-width: 0.9; stroke-linecap: round"/>
    <path d="M 246.292805 108.380877 
L 249.834726 110.292628 
L 246.180172 111.979115 
" style="fill: none; stroke: #1763b8; stroke-width: 0.9; stroke-linecap: round"/>
    <path d="M 60.102713 106.154495 
L 56.560792 104.242744 
L 60.215346 102.556257 
" style="fill: none; stroke: #1763b8; stroke-width: 0.9; stroke-linecap: round"/>
   </g>
   <g id="text_7">
    <!-- 14" -->
    <g style="fill: #1763b8" transform="translate(146.564524 111.52227) rotate(-358.207106) scale(0.075 -0.075)">
     <defs>
      <path id="DejaVuSans-17" d="M 2419 4116 
L 825 1625 
L 2419 1625 
L 2419 4116 
z
M 2253 4666 
L 3047 4666 
L 3047 1625 
L 3713 1625 
L 3713 1100 
L 3047 1100 
L 3047 0 
L 2419 0 
L 2419 1100 
L 313 1100 
L 313 1709 
L 2253 4666 
z
" transform="scale(0.015625)"/>
     </defs>
     <use xlink:href="#DejaVuSans-14"/>
     <use xlink:href="#DejaVuSans-17" transform="translate(63.625 0)"/>
     <use xlink:href="#DejaVuSans-5" transform="translate(127.25 0)"/>
    </g>
   </g>
   <g id="patch_14">
    <path d="M 278.350272 125.146459 
Q 167.237238 121.668386 56.124203 118.190312 
" style="fill: none; stroke: #1763b8; stroke-width: 0.9; stroke-linecap: round"/>
    <path d="M 274.808351 123.234708 
L 278.350272 125.146459 
L 274.695718 126.832946 
" style="fill: none; stroke: #1763b8; stroke-width: 0.9; stroke-linecap: round"/>
    <path d="M 59.666125 120.102063 
L 56.124203 118.190312 
L 59.778757 116.503825 
" style="fill: none; stroke: #1763b8; stroke-width: 0.9; stroke-linecap: round"/>
   </g>
   <g id="text_8">
    <!-- 16 1/16" -->
    <g style="fill: #1763b8" transform="translate(150.995819 125.622213) rotate(-358.207106) scale(0.075 -0.075)">
     <use xlink:href="#DejaVuSans-14"/>
     <use xlink:href="#DejaVuSans-19" transform="translate(63.625 0)"/>
     <use xlink:href="#DejaVuSans-3" transform="translate(127.25 0)"/>
     <use xlink:href="#DejaVuSans-14" transform="translate(159.03125 0)"/>
     <use xlink:href="#DejaVuSans-12" transform="translate(222.65625 0)"/>
     <use xlink:href="#DejaVuSans-14" transform="translate(256.34375 0)"/>
     <use xlink:href="#DejaVuSans-19" transform="translate(319.96875 0)"/>
     <use xlink:href="#DejaVuSans-5" transform="translate(383.59375 0)"/>
    </g>
   </g>
   <g id="text_9">
    <!-- taper ≈ 3.3°  (2½" to 1" over ≈26") -->
    <g style="fill: #1763b8" transform="translate(121.223223 146.760902) scale(0.08 -0.08)">
     <defs>
      <path id="DejaVuSans-55" d="M 2631 2963 
Q 2534 3019 2420 3045 
Q 2306 3072 2169 3072 
Q 1681 3072 1420 2755 
Q 1159 2438 1159 1844 
L 1159 0 
L 581 0 
L 581 3500 
L 1159 3500 
L 1159 2956 
Q 1341 3275 1631 3429 
Q 1922 3584 2338 3584 
Q 2397 3584 2469 3576 
Q 2541 3569 2628 3553 
L 2631 2963 
z
" transform="scale(0.015625)"/>
      <path id="DejaVuSans-b" d="M 1984 4856 
Q 1566 4138 1362 3434 
Q 1159 2731 1159 2009 
Q 1159 1288 1364 580 
Q 1569 -128 1984 -844 
L 1484 -844 
Q 1016 -109 783 600 
Q 550 1309 550 2009 
Q 550 2706 781 3412 
Q 1013 4119 1484 4856 
L 1984 4856 
z
" transform="scale(0.015625)"/>
      <path id="DejaVuSans-7f" d="M 488 2431 
L 1125 2431 
L 1125 4341 
L 428 4213 
L 428 4575 
L 1147 4697 
L 1575 4697 
L 1575 2431 
L 2216 2431 
L 2216 2088 
L 488 2088 
L 488 2431 
z
M 4472 356 
L 5797 356 
L 5797 0 
L 3928 0 
L 3928 343 
Q 4034 440 4231 615 
Q 5306 1568 5306 1862 
Q 5306 2068 5143 2194 
Q 4981 2321 4715 2321 
Q 4553 2321 4362 2266 
Q 4172 2212 3947 2103 
L 3947 2487 
Q 4187 2575 4395 2618 
Q 4603 2662 4781 2662 
Q 5234 2662 5506 2456 
Q 5778 2250 5778 1912 
Q 5778 1478 4743 590 
Q 4568 440 4472 356 
z
M 4307 4750 
L 4807 4750 
L 1894 -91 
L 1394 -91 
L 4307 4750 
z
" transform="scale(0.015625)"/>
      <path id="DejaVuSans-59" d="M 191 3500 
L 800 3500 
L 1894 563 
L 2988 3500 
L 3597 3500 
L 2284 0 
L 1503 0 
L 191 3500 
z
" transform="scale(0.015625)"/>
      <path id="DejaVuSans-c" d="M 513 4856 
L 1013 4856 
Q 1481 4119 1714 3412 
Q 1947 2706 1947 2009 
Q 1947 1309 1714 600 
Q 1481 -109 1013 -844 
L 513 -844 
Q 928 -128 1133 580 
Q 1338 1288 1338 2009 
Q 1338 2731 1133 3434 
Q 928 4138 513 4856 
z
" transform="scale(0.015625)"/>
     </defs>
     <use xlink:href="#DejaVuSans-57"/>
     <use xlink:href="#DejaVuSans-44" transform="translate(39.203125 0)"/>
     <use xlink:href="#DejaVuSans-53" transform="translate(100.484375 0)"/>
     <use xlink:href="#DejaVuSans-48" transform="translate(163.96875 0)"/>
     <use xlink:href="#DejaVuSans-55" transform="translate(225.5 0)"/>
     <use xlink:href="#DejaVuSans-3" transform="translate(266.609375 0)"/>
     <use xlink:href="#DejaVuSans-cd2" transform="translate(298.390625 0)"/>
     <use xlink:href="#DejaVuSans-3" transform="translate(382.1875 0)"/>
     <use xlink:href="#DejaVuSans-16" transform="translate(413.96875 0)"/>
     <use xlink:href="#DejaVuSans-11" transform="translate(477.59375 0)"/>
     <use xlink:href="#DejaVuSans-16" transform="translate(509.375 0)"/>
     <use xlink:href="#DejaVuSans-72" transform="translate(573 0)"/>
     <use xlink:href="#DejaVuSans-3" transform="translate(623 0)"/>
     <use xlink:href="#DejaVuSans-3" transform="translate(654.78125 0)"/>
     <use xlink:href="#DejaVuSans-b" transform="translate(686.5625 0)"/>
     <use xlink:href="#DejaVuSans-15" transform="translate(725.578125 0)"/>
     <use xlink:href="#DejaVuSans-7f" transform="translate(789.203125 0)"/>
     <use xlink:href="#DejaVuSans-5" transform="translate(886.125 0)"/>
     <use xlink:href="#DejaVuSans-3" transform="translate(932.125 0)"/>
     <use xlink:href="#DejaVuSans-57" transform="translate(963.90625 0)"/>
     <use xlink:href="#DejaVuSans-52" transform="translate(1003.109375 0)"/>
     <use xlink:href="#DejaVuSans-3" transform="translate(1064.296875 0)"/>
     <use xlink:href="#DejaVuSans-14" transform="translate(1096.078125 0)"/>
     <use xlink:href="#DejaVuSans-5" transform="translate(1159.703125 0)"/>
     <use xlink:href="#DejaVuSans-3" transform="translate(1205.703125 0)"/>
     <use xlink:href="#DejaVuSans-52" transform="translate(1237.484375 0)"/>
     <use xlink:href="#DejaVuSans-59" transform="translate(1298.671875 0)"/>
     <use xlink:href="#DejaVuSans-48" transform="translate(1357.859375 0)"/>
     <use xlink:href="#DejaVuSans-55" transform="translate(1419.390625 0)"/>
     <use xlink:href="#DejaVuSans-3" transform="translate(1460.5 0)"/>
     <use xlink:href="#DejaVuSans-cd2" transform="translate(1492.28125 0)"/>
     <use xlink:href="#DejaVuSans-15" transform="translate(1576.078125 0)"/>
     <use xlink:href="#DejaVuSans-19" transform="translate(1639.703125 0)"/>
     <use xlink:href="#DejaVuSans-5" transform="translate(1703.328125 0)"/>
     <use xlink:href="#DejaVuSans-c" transform="translate(1749.328125 0)"/>
    </g>
   </g>
   <g id="text_10">
    <!-- solid = blank (square ends)  ·  dashed = real 30° cut (both ends)  ·  hatched = waste -->
    <g style="fill: #5b4d3f" transform="translate(80.10844 154.17633) scale(0.07 -0.07)">
     <defs>
      <path id="DejaVuSans-4f" d="M 603 4863 
L 1178 4863 
L 1178 0 
L 603 0 
L 603 4863 
z
" transform="scale(0.015625)"/>
      <path id="DejaVuSans-20" d="M 678 2906 
L 4684 2906 
L 4684 2381 
L 678 2381 
L 678 2906 
z
M 678 1631 
L 4684 1631 
L 4684 1100 
L 678 1100 
L 678 1631 
z
" transform="scale(0.015625)"/>
      <path id="DejaVuSans-45" d="M 3116 1747 
Q 3116 2381 2855 2742 
Q 2594 3103 2138 3103 
Q 1681 3103 1420 2742 
Q 1159 2381 1159 1747 
Q 1159 1113 1420 752 
Q 1681 391 2138 391 
Q 2594 391 2855 752 
Q 3116 1113 3116 1747 
z
M 1159 2969 
Q 1341 3281 1617 3432 
Q 1894 3584 2278 3584 
Q 2916 3584 3314 3078 
Q 3713 2572 3713 1747 
Q 3713 922 3314 415 
Q 2916 -91 2278 -91 
Q 1894 -91 1617 61 
Q 1341 213 1159 525 
L 1159 0 
L 581 0 
L 581 4863 
L 1159 4863 
L 1159 2969 
z
" transform="scale(0.015625)"/>
      <path id="DejaVuSans-4e" d="M 581 4863 
L 1159 4863 
L 1159 1991 
L 2875 3500 
L 3609 3500 
L 1753 1863 
L 3688 0 
L 2938 0 
L 1159 1709 
L 1159 0 
L 581 0 
L 581 4863 
z
" transform="scale(0.015625)"/>
      <path id="DejaVuSans-58" d="M 544 1381 
L 544 3500 
L 1119 3500 
L 1119 1403 
Q 1119 906 1312 657 
Q 1506 409 1894 409 
Q 2359 409 2629 706 
Q 2900 1003 2900 1516 
L 2900 3500 
L 3475 3500 
L 3475 0 
L 2900 0 
L 2900 538 
Q 2691 219 2414 64 
Q 2138 -91 1772 -91 
Q 1169 -91 856 284 
Q 544 659 544 1381 
z
M 1991 3584 
L 1991 3584 
z
" transform="scale(0.015625)"/>
      <path id="DejaVuSans-79" d="M 684 2619 
L 1344 2619 
L 1344 1825 
L 684 1825 
L 684 2619 
z
" transform="scale(0.015625)"/>
      <path id="DejaVuSans-46" d="M 3122 3366 
L 3122 2828 
Q 2878 2963 2633 3030 
Q 2388 3097 2138 3097 
Q 1578 3097 1268 2742 
Q 959 2388 959 1747 
Q 959 1106 1268 751 
Q 1578 397 2138 397 
Q 2388 397 2633 464 
Q 2878 531 3122 666 
L 3122 134 
Q 2881 22 2623 -34 
Q 2366 -91 2075 -91 
Q 1284 -91 818 406 
Q 353 903 353 1747 
Q 353 2603 823 3093 
Q 1294 3584 2113 3584 
Q 2378 3584 2631 3529 
Q 2884 3475 3122 3366 
z
" transform="scale(0.015625)"/>
     </defs>
     <use xlink:href="#DejaVuSans-56"/>
     <use xlink:href="#DejaVuSans-52" transform="translate(52.09375 0)"/>
     <use xlink:href="#DejaVuSans-4f" transform="translate(113.28125 0)"/>
     <use xlink:href="#DejaVuSans-4c" transform="translate(141.0625 0)"/>
     <use xlink:href="#DejaVuSans-47" transform="translate(168.84375 0)"/>
     <use xlink:href="#DejaVuSans-3" transform="translate(232.328125 0)"/>
     <use xlink:href="#DejaVuSans-20" transform="translate(264.109375 0)"/>
     <use xlink:href="#DejaVuSans-3" transform="translate(347.90625 0)"/>
     <use xlink:href="#DejaVuSans-45" transform="translate(379.6875 0)"/>
     <use xlink:href="#DejaVuSans-4f" transform="translate(443.171875 0)"/>
     <use xlink:href="#DejaVuSans-44" transform="translate(470.953125 0)"/>
     <use xlink:href="#DejaVuSans-51" transform="translate(532.234375 0)"/>
     <use xlink:href="#DejaVuSans-4e" transform="translate(595.609375 0)"/>
     <use xlink:href="#DejaVuSans-3" transform="translate(653.515625 0)"/>
     <use xlink:href="#DejaVuSans-b" transform="translate(685.296875 0)"/>
     <use xlink:href="#DejaVuSans-56" transform="translate(724.3125 0)"/>
     <use xlink:href="#DejaVuSans-54" transform="translate(776.40625 0)"/>
     <use xlink:href="#DejaVuSans-58" transform="translate(839.890625 0)"/>
     <use xlink:href="#DejaVuSans-44" transform="translate(903.265625 0)"/>
     <use xlink:href="#DejaVuSans-55" transform="translate(964.546875 0)"/>
     <use xlink:href="#DejaVuSans-48" transform="translate(1003.453125 0)"/>
     <use xlink:href="#DejaVuSans-3" transform="translate(1064.984375 0)"/>
     <use xlink:href="#DejaVuSans-48" transform="translate(1096.765625 0)"/>
     <use xlink:href="#DejaVuSans-51" transform="translate(1158.296875 0)"/>
     <use xlink:href="#DejaVuSans-47" transform="translate(1221.671875 0)"/>
     <use xlink:href="#DejaVuSans-56" transform="translate(1285.15625 0)"/>
     <use xlink:href="#DejaVuSans-c" transform="translate(1337.25 0)"/>
     <use xlink:href="#DejaVuSans-3" transform="translate(1376.265625 0)"/>
     <use xlink:href="#DejaVuSans-3" transform="translate(1408.046875 0)"/>
     <use xlink:href="#DejaVuSans-79" transform="translate(1439.828125 0)"/>
     <use xlink:href="#DejaVuSans-3" transform="translate(1471.609375 0)"/>
     <use xlink:href="#DejaVuSans-3" transform="translate(1503.390625 0)"/>
     <use xlink:href="#DejaVuSans-47" transform="translate(1535.171875 0)"/>
     <use xlink:href="#DejaVuSans-44" transform="translate(1598.65625 0)"/>
     <use xlink:href="#DejaVuSans-56" transform="translate(1659.9375 0)"/>
     <use xlink:href="#DejaVuSans-4b" transform="translate(1712.03125 0)"/>
     <use xlink:href="#DejaVuSans-48" transform="translate(1775.40625 0)"/>
     <use xlink:href="#DejaVuSans-47" transform="translate(1836.9375 0)"/>
     <use xlink:href="#DejaVuSans-3" transform="translate(1900.421875 0)"/>
     <use xlink:href="#DejaVuSans-20" transform="translate(1932.203125 0)"/>
     <use xlink:href="#DejaVuSans-3" transform="translate(2016 0)"/>
     <use xlink:href="#DejaVuSans-55" transform="translate(2047.78125 0)"/>
     <use xlink:href="#DejaVuSans-48" transform="translate(2086.6875 0)"/>
     <use xlink:href="#DejaVuSans-44" transform="translate(2148.21875 0)"/>
     <use xlink:href="#DejaVuSans-4f" transform="translate(2209.5 0)"/>
     <use xlink:href="#DejaVuSans-3" transform="translate(2237.28125 0)"/>
     <use xlink:href="#DejaVuSans-16" transform="translate(2269.0625 0)"/>
     <use xlink:href="#DejaVuSans-13" transform="translate(2332.6875 0)"/>
     <use xlink:href="#DejaVuSans-72" transform="translate(2396.3125 0)"/>
     <use xlink:href="#DejaVuSans-3" transform="translate(2446.3125 0)"/>
     <use xlink:href="#DejaVuSans-46" transform="translate(2478.09375 0)"/>
     <use xlink:href="#DejaVuSans-58" transform="translate(2533.078125 0)"/>
     <use xlink:href="#DejaVuSans-57" transform="translate(2596.453125 0)"/>
     <use xlink:href="#DejaVuSans-3" transform="translate(2635.65625 0)"/>
     <use xlink:href="#DejaVuSans-b" transform="translate(2667.4375 0)"/>
     <use xlink:href="#DejaVuSans-45" transform="translate(2706.453125 0)"/>
     <use xlink:href="#DejaVuSans-52" transform="translate(2769.9375 0)"/>
     <use xlink:href="#DejaVuSans-57" transform="translate(2831.125 0)"/>
     <use xlink:href="#DejaVuSans-4b" transform="translate(2870.328125 0)"/>
     <use xlink:href="#DejaVuSans-3" transform="translate(2933.703125 0)"/>
     <use xlink:href="#DejaVuSans-48" transform="translate(2965.484375 0)"/>
     <use xlink:href="#DejaVuSans-51" transform="translate(3027.015625 0)"/>
     <use xlink:href="#DejaVuSans-47" transform="translate(3090.390625 0)"/>
     <use xlink:href="#DejaVuSans-56" transform="translate(3153.875 0)"/>
     <use xlink:href="#DejaVuSans-c" transform="translate(3205.96875 0)"/>
     <use xlink:href="#DejaVuSans-3" transform="translate(3244.984375 0)"/>
     <use xlink:href="#DejaVuSans-3" transform="translate(3276.765625 0)"/>
     <use xlink:href="#DejaVuSans-79" transform="translate(3308.546875 0)"/>
     <use xlink:href="#DejaVuSans-3" transform="translate(3340.328125 0)"/>
     <use xlink:href="#DejaVuSans-3" transform="translate(3372.109375 0)"/>
     <use xlink:href="#DejaVuSans-4b" transform="translate(3403.890625 0)"/>
     <use xlink:href="#DejaVuSans-44" transform="translate(3467.265625 0)"/>
     <use xlink:href="#DejaVuSans-57" transform="translate(3528.546875 0)"/>
     <use xlink:href="#DejaVuSans-46" transform="translate(3567.75 0)"/>
     <use xlink:href="#DejaVuSans-4b" transform="translate(3622.734375 0)"/>
     <use xlink:href="#DejaVuSans-48" transform="translate(3686.109375 0)"/>
     <use xlink:href="#DejaVuSans-47" transform="translate(3747.640625 0)"/>
     <use xlink:href="#DejaVuSans-3" transform="translate(3811.125 0)"/>
     <use xlink:href="#DejaVuSans-20" transform="translate(3842.90625 0)"/>
     <use xlink:href="#DejaVuSans-3" transform="translate(3926.703125 0)"/>
     <use xlink:href="#DejaVuSans-5a" transform="translate(3958.484375 0)"/>
     <use xlink:href="#DejaVuSans-44" transform="translate(4040.265625 0)"/>
     <use xlink:href="#DejaVuSans-56" transform="translate(4101.546875 0)"/>
     <use xlink:href="#DejaVuSans-57" transform="translate(4153.640625 0)"/>
     <use xlink:href="#DejaVuSans-48" transform="translate(4192.84375 0)"/>
    </g>
   </g>
   <g id="text_11">
    <!-- half-lap lines differ on each edge (60° skew + taper) — scribe to them, don't dial the angle -->
    <g style="fill: #5b4d3f" transform="translate(69.798753 162.548969) scale(0.07 -0.07)">
     <defs>
      <path id="DejaVuSans-49" d="M 2375 4863 
L 2375 4384 
L 1825 4384 
Q 1516 4384 1395 4259 
Q 1275 4134 1275 3809 
L 1275 3500 
L 2222 3500 
L 2222 3053 
L 1275 3053 
L 1275 0 
L 697 0 
L 697 3053 
L 147 3053 
L 147 3500 
L 697 3500 
L 697 3744 
Q 697 4328 969 4595 
Q 1241 4863 1831 4863 
L 2375 4863 
z
" transform="scale(0.015625)"/>
      <path id="DejaVuSans-10" d="M 313 2009 
L 1997 2009 
L 1997 1497 
L 313 1497 
L 313 2009 
z
" transform="scale(0.015625)"/>
      <path id="DejaVuSans-4a" d="M 2906 1791 
Q 2906 2416 2648 2759 
Q 2391 3103 1925 3103 
Q 1463 3103 1205 2759 
Q 947 2416 947 1791 
Q 947 1169 1205 825 
Q 1463 481 1925 481 
Q 2391 481 2648 825 
Q 2906 1169 2906 1791 
z
M 3481 434 
Q 3481 -459 3084 -895 
Q 2688 -1331 1869 -1331 
Q 1566 -1331 1297 -1286 
Q 1028 -1241 775 -1147 
L 775 -588 
Q 1028 -725 1275 -790 
Q 1522 -856 1778 -856 
Q 2344 -856 2625 -561 
Q 2906 -266 2906 331 
L 2906 616 
Q 2728 306 2450 153 
Q 2172 0 1784 0 
Q 1141 0 747 490 
Q 353 981 353 1791 
Q 353 2603 747 3093 
Q 1141 3584 1784 3584 
Q 2172 3584 2450 3431 
Q 2728 3278 2906 2969 
L 2906 3500 
L 3481 3500 
L 3481 434 
z
" transform="scale(0.015625)"/>
      <path id="DejaVuSans-e" d="M 2944 4013 
L 2944 2272 
L 4684 2272 
L 4684 1741 
L 2944 1741 
L 2944 0 
L 2419 0 
L 2419 1741 
L 678 1741 
L 678 2272 
L 2419 2272 
L 2419 4013 
L 2944 4013 
z
" transform="scale(0.015625)"/>
      <path id="DejaVuSans-af6" d="M 313 1978 
L 6088 1978 
L 6088 1528 
L 313 1528 
L 313 1978 
z
" transform="scale(0.015625)"/>
      <path id="DejaVuSans-50" d="M 3328 2828 
Q 3544 3216 3844 3400 
Q 4144 3584 4550 3584 
Q 5097 3584 5394 3201 
Q 5691 2819 5691 2113 
L 5691 0 
L 5113 0 
L 5113 2094 
Q 5113 2597 4934 2840 
Q 4756 3084 4391 3084 
Q 3944 3084 3684 2787 
Q 3425 2491 3425 1978 
L 3425 0 
L 2847 0 
L 2847 2094 
Q 2847 2600 2669 2842 
Q 2491 3084 2119 3084 
Q 1678 3084 1418 2786 
Q 1159 2488 1159 1978 
L 1159 0 
L 581 0 
L 581 3500 
L 1159 3500 
L 1159 2956 
Q 1356 3278 1631 3431 
Q 1906 3584 2284 3584 
Q 2666 3584 2933 3390 
Q 3200 3197 3328 2828 
z
" transform="scale(0.015625)"/>
      <path id="DejaVuSans-f" d="M 750 794 
L 1409 794 
L 1409 256 
L 897 -744 
L 494 -744 
L 750 256 
L 750 794 
z
" transform="scale(0.015625)"/>
      <path id="DejaVuSans-a" d="M 1147 4666 
L 1147 2931 
L 616 2931 
L 616 4666 
L 1147 4666 
z
" transform="scale(0.015625)"/>
     </defs>
     <use xlink:href="#DejaVuSans-4b"/>
     <use xlink:href="#DejaVuSans-44" transform="translate(63.375 0)"/>
     <use xlink:href="#DejaVuSans-4f" transform="translate(124.65625 0)"/>
     <use xlink:href="#DejaVuSans-49" transform="translate(152.4375 0)"/>
     <use xlink:href="#DejaVuSans-10" transform="translate(182.171875 0)"/>
     <use xlink:href="#DejaVuSans-4f" transform="translate(218.25 0)"/>
     <use xlink:href="#DejaVuSans-44" transform="translate(246.03125 0)"/>
     <use xlink:href="#DejaVuSans-53" transform="translate(307.3125 0)"/>
     <use xlink:href="#DejaVuSans-3" transform="translate(370.796875 0)"/>
     <use xlink:href="#DejaVuSans-4f" transform="translate(402.578125 0)"/>
     <use xlink:href="#DejaVuSans-4c" transform="translate(430.359375 0)"/>
     <use xlink:href="#DejaVuSans-51" transform="translate(458.140625 0)"/>
     <use xlink:href="#DejaVuSans-48" transform="translate(521.515625 0)"/>
     <use xlink:href="#DejaVuSans-56" transform="translate(583.046875 0)"/>
     <use xlink:href="#DejaVuSans-3" transform="translate(635.140625 0)"/>
     <use xlink:href="#DejaVuSans-47" transform="translate(666.921875 0)"/>
     <use xlink:href="#DejaVuSans-4c" transform="translate(730.40625 0)"/>
     <use xlink:href="#DejaVuSans-13ae" transform="translate(758.1875 0)"/>
     <use xlink:href="#DejaVuSans-48" transform="translate(827.078125 0)"/>
     <use xlink:href="#DejaVuSans-55" transform="translate(888.609375 0)"/>
     <use xlink:href="#DejaVuSans-3" transform="translate(929.71875 0)"/>
     <use xlink:href="#DejaVuSans-52" transform="translate(961.5 0)"/>
     <use xlink:href="#DejaVuSans-51" transform="translate(1022.6875 0)"/>
     <use xlink:href="#DejaVuSans-3" transform="translate(1086.0625 0)"/>
     <use xlink:href="#DejaVuSans-48" transform="translate(1117.84375 0)"/>
     <use xlink:href="#DejaVuSans-44" transform="translate(1179.375 0)"/>
     <use xlink:href="#DejaVuSans-46" transform="translate(1240.65625 0)"/>
     <use xlink:href="#DejaVuSans-4b" transform="translate(1295.640625 0)"/>
     <use xlink:href="#DejaVuSans-3" transform="translate(1359.015625 0)"/>
     <use xlink:href="#DejaVuSans-48" transform="translate(1390.796875 0)"/>
     <use xlink:href="#DejaVuSans-47" transform="translate(1452.328125 0)"/>
     <use xlink:href="#DejaVuSans-4a" transform="translate(1515.8125 0)"/>
     <use xlink:href="#DejaVuSans-48" transform="translate(1579.296875 0)"/>
     <use xlink:href="#DejaVuSans-3" transform="translate(1640.828125 0)"/>
     <use xlink:href="#DejaVuSans-b" transform="translate(1672.609375 0)"/>
     <use xlink:href="#DejaVuSans-19" transform="translate(1711.625 0)"/>
     <use xlink:href="#DejaVuSans-13" transform="translate(1775.25 0)"/>
     <use xlink:href="#DejaVuSans-72" transform="translate(1838.875 0)"/>
     <use xlink:href="#DejaVuSans-3" transform="translate(1888.875 0)"/>
     <use xlink:href="#DejaVuSans-56" transform="translate(1920.65625 0)"/>
     <use xlink:href="#DejaVuSans-4e" transform="translate(1972.75 0)"/>
     <use xlink:href="#DejaVuSans-48" transform="translate(2027.09375 0)"/>
     <use xlink:href="#DejaVuSans-5a" transform="translate(2088.625 0)"/>
     <use xlink:href="#DejaVuSans-3" transform="translate(2170.40625 0)"/>
     <use xlink:href="#DejaVuSans-e" transform="translate(2202.1875 0)"/>
     <use xlink:href="#DejaVuSans-3" transform="translate(2285.984375 0)"/>
     <use xlink:href="#DejaVuSans-57" transform="translate(2317.765625 0)"/>
     <use xlink:href="#DejaVuSans-44" transform="translate(2356.96875 0)"/>
     <use xlink:href="#DejaVuSans-53" transform="translate(2418.25 0)"/>
     <use xlink:href="#DejaVuSans-48" transform="translate(2481.734375 0)"/>
     <use xlink:href="#DejaVuSans-55" transform="translate(2543.265625 0)"/>
     <use xlink:href="#DejaVuSans-c" transform="translate(2584.375 0)"/>
     <use xlink:href="#DejaVuSans-3" transform="translate(2623.390625 0)"/>
     <use xlink:href="#DejaVuSans-af6" transform="translate(2655.171875 0)"/>
     <use xlink:href="#DejaVuSans-3" transform="translate(2755.171875 0)"/>
     <use xlink:href="#DejaVuSans-56" transform="translate(2786.953125 0)"/>
     <use xlink:href="#DejaVuSans-46" transform="translate(2839.046875 0)"/>
     <use xlink:href="#DejaVuSans-55" transform="translate(2894.03125 0)"/>
     <use xlink:href="#DejaVuSans-4c" transform="translate(2935.140625 0)"/>
     <use xlink:href="#DejaVuSans-45" transform="translate(2962.921875 0)"/>
     <use xlink:href="#DejaVuSans-48" transform="translate(3026.40625 0)"/>
     <use xlink:href="#DejaVuSans-3" transform="translate(3087.9375 0)"/>
     <use xlink:href="#DejaVuSans-57" transform="translate(3119.71875 0)"/>
     <use xlink:href="#DejaVuSans-52" transform="translate(3158.921875 0)"/>
     <use xlink:href="#DejaVuSans-3" transform="translate(3220.109375 0)"/>
     <use xlink:href="#DejaVuSans-57" transform="translate(3251.890625 0)"/>
     <use xlink:href="#DejaVuSans-4b" transform="translate(3291.09375 0)"/>
     <use xlink:href="#DejaVuSans-48" transform="translate(3354.46875 0)"/>
     <use xlink:href="#DejaVuSans-50" transform="translate(3416 0)"/>
     <use xlink:href="#DejaVuSans-f" transform="translate(3513.40625 0)"/>
     <use xlink:href="#DejaVuSans-3" transform="translate(3545.1875 0)"/>
     <use xlink:href="#DejaVuSans-47" transform="translate(3576.96875 0)"/>
     <use xlink:href="#DejaVuSans-52" transform="translate(3640.453125 0)"/>
     <use xlink:href="#DejaVuSans-51" transform="translate(3701.640625 0)"/>
     <use xlink:href="#DejaVuSans-a" transform="translate(3765.015625 0)"/>
     <use xlink:href="#DejaVuSans-57" transform="translate(3792.5 0)"/>
     <use xlink:href="#DejaVuSans-3" transform="translate(3831.703125 0)"/>
     <use xlink:href="#DejaVuSans-47" transform="translate(3863.484375 0)"/>
     <use xlink:href="#DejaVuSans-4c" transform="translate(3926.96875 0)"/>
     <use xlink:href="#DejaVuSans-44" transform="translate(3954.75 0)"/>
     <use xlink:href="#DejaVuSans-4f" transform="translate(4016.03125 0)"/>
     <use xlink:href="#DejaVuSans-3" transform="translate(4043.8125 0)"/>
     <use xlink:href="#DejaVuSans-57" transform="translate(4075.59375 0)"/>
     <use xlink:href="#DejaVuSans-4b" transform="translate(4114.796875 0)"/>
     <use xlink:href="#DejaVuSans-48" transform="translate(4178.171875 0)"/>
     <use xlink:href="#DejaVuSans-3" transform="translate(4239.703125 0)"/>
     <use xlink:href="#DejaVuSans-44" transform="translate(4271.484375 0)"/>
     <use xlink:href="#DejaVuSans-51" transform="translate(4332.765625 0)"/>
     <use xlink:href="#DejaVuSans-4a" transform="translate(4396.140625 0)"/>
     <use xlink:href="#DejaVuSans-4f" transform="translate(4459.625 0)"/>
     <use xlink:href="#DejaVuSans-48" transform="translate(4487.40625 0)"/>
    </g>
   </g>
   <g id="patch_15">
    <path d="M 408.1714 33.790318 
Q 227.904248 38.994182 47.637095 44.198047 
" style="fill: none; stroke: #1763b8; stroke-width: 0.9; stroke-linecap: round"/>
    <path d="M 404.520959 32.094947 
L 408.1714 33.790318 
L 404.624839 35.693448 
" style="fill: none; stroke: #1763b8; stroke-width: 0.9; stroke-linecap: round"/>
    <path d="M 51.287536 45.893417 
L 47.637095 44.198047 
L 51.183656 42.294916 
" style="fill: none; stroke: #1763b8; stroke-width: 0.9; stroke-linecap: round"/>
   </g>
   <g id="text_12">
    <!-- ≈26" point-to-point -->
    <g style="fill: #1763b8" transform="translate(184.119118 40.084528) rotate(-1.653527) scale(0.09 -0.09)">
     <use xlink:href="#DejaVuSans-cd2"/>
     <use xlink:href="#DejaVuSans-15" transform="translate(83.796875 0)"/>
     <use xlink:href="#DejaVuSans-19" transform="translate(147.421875 0)"/>
     <use xlink:href="#DejaVuSans-5" transform="translate(211.046875 0)"/>
     <use xlink:href="#DejaVuSans-3" transform="translate(257.046875 0)"/>
     <use xlink:href="#DejaVuSans-53" transform="translate(288.828125 0)"/>
     <use xlink:href="#DejaVuSans-52" transform="translate(352.3125 0)"/>
     <use xlink:href="#DejaVuSans-4c" transform="translate(413.5 0)"/>
     <use xlink:href="#DejaVuSans-51" transform="translate(441.28125 0)"/>
     <use xlink:href="#DejaVuSans-57" transform="translate(504.65625 0)"/>
     <use xlink:href="#DejaVuSans-10" transform="translate(543.859375 0)"/>
     <use xlink:href="#DejaVuSans-57" transform="translate(579.9375 0)"/>
     <use xlink:href="#DejaVuSans-52" transform="translate(619.140625 0)"/>
     <use xlink:href="#DejaVuSans-10" transform="translate(682.1875 0)"/>
     <use xlink:href="#DejaVuSans-53" transform="translate(718.265625 0)"/>
     <use xlink:href="#DejaVuSans-52" transform="translate(781.75 0)"/>
     <use xlink:href="#DejaVuSans-4c" transform="translate(842.9375 0)"/>
     <use xlink:href="#DejaVuSans-51" transform="translate(870.71875 0)"/>
     <use xlink:href="#DejaVuSans-57" transform="translate(934.09375 0)"/>
    </g>
   </g>
   <g id="patch_16">
    <path d="M 60.297561 83.591931 
Q 60.297561 89.5629 60.297561 95.533869 
" style="fill: none; stroke: #1763b8; stroke-width: 0.9; stroke-linecap: round"/>
    <path d="M 58.497561 87.191931 
L 60.297561 83.591931 
L 62.097561 87.191931 
" style="fill: none; stroke: #1763b8; stroke-width: 0.9; stroke-linecap: round"/>
    <path d="M 62.097561 91.933869 
L 60.297561 95.533869 
L 58.497561 91.933869 
" style="fill: none; stroke: #1763b8; stroke-width: 0.9; stroke-linecap: round"/>
   </g>
   <g id="text_13">
    <!-- 1" -->
    <g style="fill: #1763b8" transform="translate(64.887478 93.9479) rotate(-90) scale(0.08 -0.08)">
     <use xlink:href="#DejaVuSans-14"/>
     <use xlink:href="#DejaVuSans-5" transform="translate(63.625 0)"/>
    </g>
   </g>
   <g id="patch_17">
    <path d="M 431.216128 73.126132 
Q 431.216128 89.5629 431.216128 105.999669 
" style="fill: none; stroke: #1763b8; stroke-width: 0.9; stroke-linecap: round"/>
    <path d="M 429.416128 76.726132 
L 431.216128 73.126132 
L 433.016128 76.726132 
" style="fill: none; stroke: #1763b8; stroke-width: 0.9; stroke-linecap: round"/>
    <path d="M 433.016128 102.399669 
L 431.216128 105.999669 
L 429.416128 102.399669 
" style="fill: none; stroke: #1763b8; stroke-width: 0.9; stroke-linecap: round"/>
   </g>
   <g id="text_14">
    <!-- 2½" -->
    <g style="fill: #1763b8" transform="translate(435.806045 97.824775) rotate(-90) scale(0.08 -0.08)">
     <use xlink:href="#DejaVuSans-15"/>
     <use xlink:href="#DejaVuSans-7f" transform="translate(63.625 0)"/>
     <use xlink:href="#DejaVuSans-5" transform="translate(160.546875 0)"/>
    </g>
   </g>
   <g id="patch_18">
    <path d="M 400.51645 177.086406 
Q 400.51645 181.313075 400.51645 185.539744 
" style="fill: none; stroke: #1763b8; stroke-width: 0.9; stroke-linecap: round"/>
    <path d="M 398.71645 180.686406 
L 400.51645 177.086406 
L 402.31645 180.686406 
" style="fill: none; stroke: #1763b8; stroke-width: 0.9; stroke-linecap: round"/>
    <path d="M 402.31645 181.939744 
L 400.51645 185.539744 
L 398.71645 181.939744 
" style="fill: none; stroke: #1763b8; stroke-width: 0.9; stroke-linecap: round"/>
   </g>
   <g id="text_15">
    <!-- ¾" -->
    <g style="fill: #1763b8" transform="translate(400.082783 187.02995) rotate(-90) scale(0.08 -0.08)">
     <defs>
      <path id="DejaVuSans-80" d="M 1638 3500 
Q 1925 3444 2083 3273 
Q 2241 3103 2241 2847 
Q 2241 2459 1944 2250 
Q 1647 2041 1094 2041 
Q 916 2041 720 2073 
Q 525 2106 306 2169 
L 306 2547 
Q 469 2463 655 2422 
Q 841 2381 1050 2381 
Q 1391 2381 1578 2504 
Q 1766 2628 1766 2847 
Q 1766 3078 1592 3197 
Q 1419 3316 1081 3316 
L 813 3316 
L 813 3653 
L 1106 3653 
Q 1400 3653 1551 3751 
Q 1703 3850 1703 4038 
Q 1703 4219 1547 4314 
Q 1391 4409 1094 4409 
Q 969 4409 809 4381 
Q 650 4353 397 4281 
L 397 4641 
Q 625 4694 825 4722 
Q 1025 4750 1197 4750 
Q 1647 4750 1911 4565 
Q 2175 4381 2175 4072 
Q 2175 3856 2034 3706 
Q 1894 3556 1638 3500 
z
M 5125 2231 
L 4159 921 
L 5125 921 
L 5125 2231 
z
M 5056 2609 
L 5575 2609 
L 5575 921 
L 5997 921 
L 5997 581 
L 5575 581 
L 5575 0 
L 5125 0 
L 5125 581 
L 3831 581 
L 3831 959 
L 5056 2609 
z
M 4307 4750 
L 4807 4750 
L 1894 -91 
L 1394 -91 
L 4307 4750 
z
" transform="scale(0.015625)"/>
     </defs>
     <use xlink:href="#DejaVuSans-80"/>
     <use xlink:href="#DejaVuSans-5" transform="translate(96.921875 0)"/>
    </g>
   </g>
   <g id="patch_19">
    <path d="M 274.452761 177.086406 
Q 274.452761 178.696625 274.452761 180.306845 
" style="fill: none; stroke: #1763b8; stroke-width: 0.9; stroke-linecap: round"/>
    <path d="M 272.652761 180.686406 
L 274.452761 177.086406 
L 276.252761 180.686406 
" style="fill: none; stroke: #1763b8; stroke-width: 0.9; stroke-linecap: round"/>
    <path d="M 276.252761 176.706845 
L 274.452761 180.306845 
L 272.652761 176.706845 
" style="fill: none; stroke: #1763b8; stroke-width: 0.9; stroke-linecap: round"/>
   </g>
   <g id="text_16">
    <!-- ⅜" -->
    <g style="fill: #1763b8" transform="translate(273.889212 184.056196) rotate(-90) scale(0.075 -0.075)">
     <defs>
      <path id="DejaVuSans-bef" d="M 1638 3500 
Q 1925 3444 2083 3273 
Q 2241 3103 2241 2847 
Q 2241 2459 1944 2250 
Q 1647 2041 1094 2041 
Q 916 2041 720 2073 
Q 525 2106 306 2169 
L 306 2547 
Q 469 2463 655 2422 
Q 841 2381 1050 2381 
Q 1391 2381 1578 2504 
Q 1766 2628 1766 2847 
Q 1766 3078 1592 3197 
Q 1419 3316 1081 3316 
L 813 3316 
L 813 3653 
L 1106 3653 
Q 1400 3653 1551 3751 
Q 1703 3850 1703 4038 
Q 1703 4219 1547 4314 
Q 1391 4409 1094 4409 
Q 969 4409 809 4381 
Q 650 4353 397 4281 
L 397 4641 
Q 625 4694 825 4722 
Q 1025 4750 1197 4750 
Q 1647 4750 1911 4565 
Q 2175 4381 2175 4072 
Q 2175 3856 2034 3706 
Q 1894 3556 1638 3500 
z
M 4307 4750 
L 4807 4750 
L 1894 -91 
L 1394 -91 
L 4307 4750 
z
M 5400 1106 
Q 5234 1243 4943 1243 
Q 4653 1243 4487 1106 
Q 4322 971 4322 737 
Q 4322 500 4487 365 
Q 4653 231 4943 231 
Q 5231 231 5400 368 
Q 5565 503 5565 737 
Q 5565 971 5400 1106 
z
M 4537 1396 
Q 4275 1453 4131 1606 
Q 3984 1762 3984 1987 
Q 3984 2300 4240 2481 
Q 4497 2662 4943 2662 
Q 5390 2662 5647 2481 
Q 5900 2300 5900 1987 
Q 5900 1756 5756 1606 
Q 5609 1453 5350 1396 
Q 5631 1340 5806 1159 
Q 5972 987 5972 737 
Q 5972 359 5706 156 
Q 5437 -47 4943 -47 
Q 4447 -47 4181 156 
Q 3912 359 3912 737 
Q 3912 981 4078 1159 
Q 4247 1334 4537 1396 
z
M 4387 1953 
Q 4387 1756 4534 1637 
Q 4678 1521 4943 1521 
Q 5197 1521 5350 1637 
Q 5500 1750 5500 1953 
Q 5500 2150 5350 2268 
Q 5203 2384 4943 2384 
Q 4684 2384 4534 2268 
Q 4387 2156 4387 1953 
z
" transform="scale(0.015625)"/>
     </defs>
     <use xlink:href="#DejaVuSans-bef"/>
     <use xlink:href="#DejaVuSans-5" transform="translate(96.921875 0)"/>
    </g>
   </g>
   <g id="text_17">
    <!-- edge view (thickness) -->
    <g style="fill: #3a2a1a" transform="translate(47.738601 170.498416) scale(0.075 -0.075)">
     <use xlink:href="#DejaVuSans-48"/>
     <use xlink:href="#DejaVuSans-47" transform="translate(61.53125 0)"/>
     <use xlink:href="#DejaVuSans-4a" transform="translate(125.015625 0)"/>
     <use xlink:href="#DejaVuSans-48" transform="translate(188.5 0)"/>
     <use xlink:href="#DejaVuSans-3" transform="translate(250.03125 0)"/>
     <use xlink:href="#DejaVuSans-59" transform="translate(281.8125 0)"/>
     <use xlink:href="#DejaVuSans-4c" transform="translate(341 0)"/>
     <use xlink:href="#DejaVuSans-48" transform="translate(368.78125 0)"/>
     <use xlink:href="#DejaVuSans-5a" transform="translate(430.3125 0)"/>
     <use xlink:href="#DejaVuSans-3" transform="translate(512.09375 0)"/>
     <use xlink:href="#DejaVuSans-b" transform="translate(543.875 0)"/>
     <use xlink:href="#DejaVuSans-57" transform="translate(582.890625 0)"/>
     <use xlink:href="#DejaVuSans-4b" transform="translate(622.09375 0)"/>
     <use xlink:href="#DejaVuSans-4c" transform="translate(685.46875 0)"/>
     <use xlink:href="#DejaVuSans-46" transform="translate(713.25 0)"/>
     <use xlink:href="#DejaVuSans-4e" transform="translate(768.234375 0)"/>
     <use xlink:href="#DejaVuSans-51" transform="translate(826.140625 0)"/>
     <use xlink:href="#DejaVuSans-48" transform="translate(889.515625 0)"/>
     <use xlink:href="#DejaVuSans-56" transform="translate(951.046875 0)"/>
     <use xlink:href="#DejaVuSans-56" transform="translate(1003.140625 0)"/>
     <use xlink:href="#DejaVuSans-c" transform="translate(1055.234375 0)"/>
    </g>
   </g>
   <g id="patch_20">
    <path d="M 325.057237 190.589056 
Q 297.932907 183.584784 270.808576 176.580512 
" style="fill: none; stroke: #3a2a1a; stroke-width: 0.6; stroke-linecap: round"/>
   </g>
   <g id="text_18">
    <!-- half-lap ⅜" deep — -->
    <g style="fill: #3a2a1a" transform="translate(317.711399 200.398432) scale(0.085 -0.085)">
     <use xlink:href="#DejaVuSans-4b"/>
     <use xlink:href="#DejaVuSans-44" transform="translate(63.375 0)"/>
     <use xlink:href="#DejaVuSans-4f" transform="translate(124.65625 0)"/>
     <use xlink:href="#DejaVuSans-49" transform="translate(152.4375 0)"/>
     <use xlink:href="#DejaVuSans-10" transform="translate(182.171875 0)"/>
     <use xlink:href="#DejaVuSans-4f" transform="translate(218.25 0)"/>
     <use xlink:href="#DejaVuSans-44" transform="translate(246.03125 0)"/>
     <use xlink:href="#DejaVuSans-53" transform="translate(307.3125 0)"/>
     <use xlink:href="#DejaVuSans-3" transform="translate(370.796875 0)"/>
     <use xlink:href="#DejaVuSans-bef" transform="translate(402.578125 0)"/>
     <use xlink:href="#DejaVuSans-5" transform="translate(499.5 0)"/>
     <use xlink:href="#DejaVuSans-3" transform="translate(545.5 0)"/>
     <use xlink:href="#DejaVuSans-47" transform="translate(577.28125 0)"/>
     <use xlink:href="#DejaVuSans-48" transform="translate(640.765625 0)"/>
     <use xlink:href="#DejaVuSans-48" transform="translate(702.296875 0)"/>
     <use xlink:href="#DejaVuSans-53" transform="translate(763.828125 0)"/>
     <use xlink:href="#DejaVuSans-3" transform="translate(827.3125 0)"/>
     <use xlink:href="#DejaVuSans-af6" transform="translate(859.09375 0)"/>
    </g>
    <!-- scribe from the mating leg -->
    <g style="fill: #3a2a1a" transform="translate(317.711399 210.600756) scale(0.085 -0.085)">
     <use xlink:href="#DejaVuSans-56"/>
     <use xlink:href="#DejaVuSans-46" transform="translate(52.09375 0)"/>
     <use xlink:href="#DejaVuSans-55" transform="translate(107.078125 0)"/>
     <use xlink:href="#DejaVuSans-4c" transform="translate(148.1875 0)"/>
     <use xlink:href="#DejaVuSans-45" transform="translate(175.96875 0)"/>
     <use xlink:href="#DejaVuSans-48" transform="translate(239.453125 0)"/>
     <use xlink:href="#DejaVuSans-3" transform="translate(300.984375 0)"/>
     <use xlink:href="#DejaVuSans-49" transform="translate(332.765625 0)"/>
     <use xlink:href="#DejaVuSans-55" transform="translate(367.96875 0)"/>
     <use xlink:href="#DejaVuSans-52" transform="translate(406.875 0)"/>
     <use xlink:href="#DejaVuSans-50" transform="translate(468.0625 0)"/>
     <use xlink:href="#DejaVuSans-3" transform="translate(565.46875 0)"/>
     <use xlink:href="#DejaVuSans-57" transform="translate(597.25 0)"/>
     <use xlink:href="#DejaVuSans-4b" transform="translate(636.453125 0)"/>
     <use xlink:href="#DejaVuSans-48" transform="translate(699.828125 0)"/>
     <use xlink:href="#DejaVuSans-3" transform="translate(761.359375 0)"/>
     <use xlink:href="#DejaVuSans-50" transform="translate(793.140625 0)"/>
     <use xlink:href="#DejaVuSans-44" transform="translate(890.546875 0)"/>
     <use xlink:href="#DejaVuSans-57" transform="translate(951.828125 0)"/>
     <use xlink:href="#DejaVuSans-4c" transform="translate(991.03125 0)"/>
     <use xlink:href="#DejaVuSans-51" transform="translate(1018.8125 0)"/>
     <use xlink:href="#DejaVuSans-4a" transform="translate(1082.1875 0)"/>
     <use xlink:href="#DejaVuSans-3" transform="translate(1145.671875 0)"/>
     <use xlink:href="#DejaVuSans-4f" transform="translate(1177.453125 0)"/>
     <use xlink:href="#DejaVuSans-48" transform="translate(1205.234375 0)"/>
     <use xlink:href="#DejaVuSans-4a" transform="translate(1266.765625 0)"/>
    </g>
   </g>
   <g id="text_19">
    <!-- Leg detail — taper, end angle &amp; half-lap -->
    <g style="fill: #3a2a1a" transform="translate(129.982591 16.998281) scale(0.11 -0.11)">
     <defs>
      <path id="DejaVuSans-2f" d="M 628 4666 
L 1259 4666 
L 1259 531 
L 3531 531 
L 3531 0 
L 628 0 
L 628 4666 
z
" transform="scale(0.015625)"/>
      <path id="DejaVuSans-9" d="M 1556 2509 
Q 1272 2256 1139 2004 
Q 1006 1753 1006 1478 
Q 1006 1022 1337 719 
Q 1669 416 2169 416 
Q 2466 416 2725 514 
Q 2984 613 3213 813 
L 1556 2509 
z
M 1997 2859 
L 3584 1234 
Q 3769 1513 3872 1830 
Q 3975 2147 3994 2503 
L 4575 2503 
Q 4538 2091 4375 1687 
Q 4213 1284 3922 891 
L 4794 0 
L 4006 0 
L 3559 459 
Q 3234 181 2878 45 
Q 2522 -91 2113 -91 
Q 1359 -91 881 339 
Q 403 769 403 1441 
Q 403 1841 612 2192 
Q 822 2544 1241 2853 
Q 1091 3050 1012 3245 
Q 934 3441 934 3628 
Q 934 4134 1281 4442 
Q 1628 4750 2203 4750 
Q 2463 4750 2720 4694 
Q 2978 4638 3244 4525 
L 3244 3956 
Q 2972 4103 2725 4179 
Q 2478 4256 2266 4256 
Q 1938 4256 1733 4082 
Q 1528 3909 1528 3634 
Q 1528 3475 1620 3314 
Q 1713 3153 1997 2859 
z
" transform="scale(0.015625)"/>
     </defs>
     <use xlink:href="#DejaVuSans-2f"/>
     <use xlink:href="#DejaVuSans-48" transform="translate(53.96875 0)"/>
     <use xlink:href="#DejaVuSans-4a" transform="translate(115.5 0)"/>
     <use xlink:href="#DejaVuSans-3" transform="translate(178.984375 0)"/>
     <use xlink:href="#DejaVuSans-47" transform="translate(210.765625 0)"/>
     <use xlink:href="#DejaVuSans-48" transform="translate(274.25 0)"/>
     <use xlink:href="#DejaVuSans-57" transform="translate(335.78125 0)"/>
     <use xlink:href="#DejaVuSans-44" transform="translate(374.984375 0)"/>
     <use xlink:href="#DejaVuSans-4c" transform="translate(436.265625 0)"/>
     <use xlink:href="#DejaVuSans-4f" transform="translate(464.046875 0)"/>
     <use xlink:href="#DejaVuSans-3" transform="translate(491.828125 0)"/>
     <use xlink:href="#DejaVuSans-af6" transform="translate(523.609375 0)"/>
     <use xlink:href="#DejaVuSans-3" transform="translate(623.609375 0)"/>
     <use xlink:href="#DejaVuSans-57" transform="translate(655.390625 0)"/>
     <use xlink:href="#DejaVuSans-44" transform="translate(694.59375 0)"/>
     <use xlink:href="#DejaVuSans-53" transform="translate(755.875 0)"/>
     <use xlink:href="#DejaVuSans-48" transform="translate(819.359375 0)"/>
     <use xlink:href="#DejaVuSans-55" transform="translate(880.890625 0)"/>
     <use xlink:href="#DejaVuSans-f" transform="translate(922 0)"/>
     <use xlink:href="#DejaVuSans-3" transform="translate(953.78125 0)"/>
     <use xlink:href="#DejaVuSans-48" transform="translate(985.5625 0)"/>
     <use xlink:href="#DejaVuSans-51" transform="translate(1047.09375 0)"/>
     <use xlink:href="#DejaVuSans-47" transform="translate(1110.46875 0)"/>
     <use xlink:href="#DejaVuSans-3" transform="translate(1173.953125 0)"/>
     <use xlink:href="#DejaVuSans-44" transform="translate(1205.734375 0)"/>
     <use xlink:href="#DejaVuSans-51" transform="translate(1267.015625 0)"/>
     <use xlink:href="#DejaVuSans-4a" transform="translate(1330.390625 0)"/>
     <use xlink:href="#DejaVuSans-4f" transform="translate(1393.875 0)"/>
     <use xlink:href="#DejaVuSans-48" transform="translate(1421.65625 0)"/>
     <use xlink:href="#DejaVuSans-3" transform="translate(1483.1875 0)"/>
     <use xlink:href="#DejaVuSans-9" transform="translate(1514.96875 0)"/>
     <use xlink:href="#DejaVuSans-3" transform="translate(1592.953125 0)"/>
     <use xlink:href="#DejaVuSans-4b" transform="translate(1624.734375 0)"/>
     <use xlink:href="#DejaVuSans-44" transform="translate(1688.109375 0)"/>
     <use xlink:href="#DejaVuSans-4f" transform="translate(1749.390625 0)"/>
     <use xlink:href="#DejaVuSans-49" transform="translate(1777.171875 0)"/>
     <use xlink:href="#DejaVuSans-10" transform="translate(1806.90625 0)"/>
     <use xlink:href="#DejaVuSans-4f" transform="translate(1842.984375 0)"/>
     <use xlink:href="#DejaVuSans-44" transform="translate(1870.765625 0)"/>
     <use xlink:href="#DejaVuSans-53" transform="translate(1932.046875 0)"/>
    </g>
   </g>
   <g id="text_20">
    <!-- half-lap -->
    <g style="fill: #3a2a1a" transform="translate(267.118107 101.532504) rotate(-58) scale(0.07 -0.07)">
     <use xlink:href="#DejaVuSans-4b"/>
     <use xlink:href="#DejaVuSans-44" transform="translate(63.375 0)"/>
     <use xlink:href="#DejaVuSans-4f" transform="translate(124.65625 0)"/>
     <use xlink:href="#DejaVuSans-49" transform="translate(152.4375 0)"/>
     <use xlink:href="#DejaVuSans-10" transform="translate(182.171875 0)"/>
     <use xlink:href="#DejaVuSans-4f" transform="translate(218.25 0)"/>
     <use xlink:href="#DejaVuSans-44" transform="translate(246.03125 0)"/>
     <use xlink:href="#DejaVuSans-53" transform="translate(307.3125 0)"/>
    </g>
   </g>
  </g>
 </g>
 <defs>
  <clipPath id="pd2576f41aa">
   <rect x="38.85681" y="28.998281" width="401.76" height="160.636864"/>
  </clipPath>
 </defs>
 <defs>
  <pattern id="hdd0d5771ab" patternUnits="userSpaceOnUse" x="0" y="0" width="72" height="72">
   <rect x="0" y="0" width="73" height="73" fill="#b9895c"/>
   <path d="M -36 36 
L 36 -36 
M -32 40 
L 40 -32 
M -28 44 
L 44 -28 
M -24 48 
L 48 -24 
M -20 52 
L 52 -20 
M -16 56 
L 56 -16 
M -12 60 
L 60 -12 
M -8 64 
L 64 -8 
M -4 68 
L 68 -4 
M 0 72 
L 72 0 
M 4 76 
L 76 4 
M 8 80 
L 80 8 
M 12 84 
L 84 12 
M 16 88 
L 88 16 
M 20 92 
L 92 20 
M 24 96 
L 96 24 
M 28 100 
L 100 28 
M 32 104 
L 104 32 
M 36 108 
L 108 36 
" style="fill: #3a2a1a; stroke: #3a2a1a; stroke-width: 1.0; stroke-linecap: butt; stroke-linejoin: miter; stroke-opacity: 0.9"/>
  </pattern>
  <pattern id="h6633a5edc9" patternUnits="userSpaceOnUse" x="0" y="0" width="72" height="72">
   <rect x="0" y="0" width="73" height="73" fill="#b9895c"/>
   <path d="M -36 36 
L 36 -36 
M -32 40 
L 40 -32 
M -28 44 
L 44 -28 
M -24 48 
L 48 -24 
M -20 52 
L 52 -20 
M -16 56 
L 56 -16 
M -12 60 
L 60 -12 
M -8 64 
L 64 -8 
M -4 68 
L 68 -4 
M 0 72 
L 72 0 
M 4 76 
L 76 4 
M 8 80 
L 80 8 
M 12 84 
L 84 12 
M 16 88 
L 88 16 
M 20 92 
L 92 20 
M 24 96 
L 96 24 
M 28 100 
L 100 28 
M 32 104 
L 104 32 
M 36 108 
L 108 36 
" style="fill: #3a2a1a; stroke: #3a2a1a; stroke-width: 1.0; stroke-linecap: butt; stroke-linejoin: miter"/>
  </pattern>
  <pattern id="hf281ca2713" patternUnits="userSpaceOnUse" x="0" y="0" width="72" height="72">
   <rect x="0" y="0" width="73" height="73" fill="#d9cdbd"/>
   <path d="M -36 36 
L 36 -36 
M -32 40 
L 40 -32 
M -28 44 
L 44 -28 
M -24 48 
L 48 -24 
M -20 52 
L 52 -20 
M -16 56 
L 56 -16 
M -12 60 
L 60 -12 
M -8 64 
L 64 -8 
M -4 68 
L 68 -4 
M 0 72 
L 72 0 
M 4 76 
L 76 4 
M 8 80 
L 80 8 
M 12 84 
L 84 12 
M 16 88 
L 88 16 
M 20 92 
L 92 20 
M 24 96 
L 96 24 
M 28 100 
L 100 28 
M 32 104 
L 104 32 
M 36 108 
L 108 36 
M -36 36 
L 36 108 
M -32 32 
L 40 104 
M -28 28 
L 44 100 
M -24 24 
L 48 96 
M -20 20 
L 52 92 
M -16 16 
L 56 88 
M -12 12 
L 60 84 
M -8 8 
L 64 80 
M -4 4 
L 68 76 
M 0 0 
L 72 72 
M 4 -4 
L 76 68 
M 8 -8 
L 80 64 
M 12 -12 
L 84 60 
M 16 -16 
L 88 56 
M 20 -20 
L 92 52 
M 24 -24 
L 96 48 
M 28 -28 
L 100 44 
M 32 -32 
L 104 40 
M 36 -36 
L 108 36 
" style="fill: #3a2a1a; stroke: #3a2a1a; stroke-width: 1.0; stroke-linecap: butt; stroke-linejoin: miter"/>
  </pattern>
 </defs>
</svg>
