<?xml version="1.0" encoding="utf-8" standalone="no"?>
<!DOCTYPE svg PUBLIC "-//W3C//DTD SVG 1.1//EN"
  "http://www.w3.org/Graphics/SVG/1.1/DTD/svg11.dtd">
<svg xmlns:xlink="http://www.w3.org/1999/xlink" width="502.109396pt" height="212.623444pt" viewBox="0 0 502.109396 212.623444" xmlns="http://www.w3.org/2000/svg" version="1.1">
 <metadata>
  <rdf:RDF xmlns:dc="http://purl.org/dc/elements/1.1/" xmlns:cc="http://creativecommons.org/ns#" xmlns:rdf="http://www.w3.org/1999/02/22-rdf-syntax-ns#">
   <cc:Work>
    <dc:type rdf:resource="http://purl.org/dc/dcmitype/StillImage"/>
    <dc:date>2026-06-28T14:11:26.285894</dc:date>
    <dc:format>image/svg+xml</dc:format>
    <dc:creator>
     <cc:Agent>
      <dc:title>Matplotlib v3.11.0, https://matplotlib.org/</dc:title>
     </cc:Agent>
    </dc:creator>
   </cc:Work>
  </rdf:RDF>
 </metadata>
 <defs>
  <style type="text/css">*{stroke-linejoin: round; stroke-linecap: butt}</style>
 </defs>
 <g id="figure_1">
  <g id="patch_1">
   <path d="M 0 212.623444 
L 502.109396 212.623444 
L 502.109396 -0 
L 0 -0 
z
" style="fill: #ffffff"/>
  </g>
  <g id="axes_1">
   <g id="patch_2">
    <path d="M 127.452613 155.011722 
L 127.74439 158.346746 
L 128.610855 161.580437 
L 130.025681 164.614541 
L 131.945879 167.356868 
L 134.313105 169.724094 
L 137.055432 171.644293 
L 140.089536 173.059118 
L 143.323227 173.925583 
L 146.658251 174.21736 
L 449.680541 174.21736 
L 453.015565 173.925583 
L 456.249257 173.059118 
L 459.28336 171.644293 
L 462.025688 169.724094 
L 464.392914 167.356868 
L 466.313112 164.614541 
L 467.727938 161.580437 
L 468.594403 158.346746 
L 468.88618 155.011722 
L 468.88618 52.581652 
L 468.594403 49.246628 
L 467.727938 46.012937 
L 466.313112 42.978833 
L 464.392914 40.236506 
L 462.025688 37.86928 
L 459.28336 35.949082 
L 456.249257 34.534256 
L 453.015565 33.667791 
L 449.680541 33.376014 
L 146.658251 33.376014 
L 143.323227 33.667791 
L 140.089536 34.534256 
L 137.055432 35.949082 
L 134.313105 37.86928 
L 131.945879 40.236506 
L 130.025681 42.978833 
L 128.610855 46.012937 
L 127.74439 49.246628 
L 127.452613 52.581652 
z
" clip-path="url(#pebc299f105)" style="fill: #e7c9a4; stroke: #3a2a1a; stroke-width: 1.4; stroke-linejoin: miter"/>
   </g>
   <g id="patch_3">
    <path d="M 137.055432 155.011722 
L 137.201321 156.679234 
L 137.634553 158.29608 
L 138.341966 159.813132 
L 139.302065 161.184295 
L 140.485678 162.367908 
L 141.856842 163.328007 
L 143.373894 164.03542 
L 144.990739 164.468653 
L 146.658251 164.614541 
L 449.680541 164.614541 
L 451.348053 164.468653 
L 452.964899 164.03542 
L 454.481951 163.328007 
L 455.853115 162.367908 
L 457.036728 161.184295 
L 457.996827 159.813132 
L 458.70424 158.29608 
L 459.137472 156.679234 
L 459.28336 155.011722 
L 459.28336 52.581652 
L 459.137472 50.91414 
L 458.70424 49.297295 
L 457.996827 47.780243 
L 457.036728 46.409079 
L 455.853115 45.225466 
L 454.481951 44.265367 
L 452.964899 43.557954 
L 451.348053 43.124721 
L 449.680541 42.978833 
L 146.658251 42.978833 
L 144.990739 43.124721 
L 143.373894 43.557954 
L 141.856842 44.265367 
L 140.485678 45.225466 
L 139.302065 46.409079 
L 138.341966 47.780243 
L 137.634553 49.297295 
L 137.201321 50.91414 
L 137.055432 52.581652 
L 137.055432 155.011722 
z
" clip-path="url(#pebc299f105)" style="fill: none; stroke-dasharray: 3.2,2.4; stroke-dashoffset: 0; stroke: #b07a3a; stroke-width: 0.8; stroke-linejoin: miter"/>
   </g>
   <g id="patch_4">
    <path d="M 180.705484 163.547561 
L 241.84967 163.547561 
L 241.84967 44.045813 
L 180.705484 44.045813 
L 180.705484 163.547561 
z
" clip-path="url(#pebc299f105)" style="fill: none; stroke: #1763b8; stroke-width: 1.2; stroke-linejoin: miter"/>
   </g>
   <g id="patch_5">
    <path d="M 354.489123 163.547561 
L 415.633308 163.547561 
L 415.633308 44.045813 
L 354.489123 44.045813 
L 354.489123 163.547561 
z
" clip-path="url(#pebc299f105)" style="fill: none; stroke: #1763b8; stroke-width: 1.2; stroke-linejoin: miter"/>
   </g>
   <g id="patch_6">
    <path d="M 187.107364 163.547561 
L 235.44779 163.547561 
L 235.44779 150.743802 
L 187.107364 150.743802 
z
" clip-path="url(#pebc299f105)" style="fill: #d8a673; stroke: #3a2a1a; stroke-width: 0.8; stroke-linejoin: miter"/>
   </g>
   <g id="patch_7">
    <path d="M 360.891002 163.547561 
L 409.231429 163.547561 
L 409.231429 150.743802 
L 360.891002 150.743802 
z
" clip-path="url(#pebc299f105)" style="fill: #d8a673; stroke: #3a2a1a; stroke-width: 0.8; stroke-linejoin: miter"/>
   </g>
   <g id="patch_8">
    <path d="M 187.107364 56.849572 
L 235.44779 56.849572 
L 235.44779 44.045813 
L 187.107364 44.045813 
z
" clip-path="url(#pebc299f105)" style="fill: #d8a673; stroke: #3a2a1a; stroke-width: 0.8; stroke-linejoin: miter"/>
   </g>
   <g id="patch_9">
    <path d="M 360.891002 56.849572 
L 409.231429 56.849572 
L 409.231429 44.045813 
L 360.891002 44.045813 
z
" clip-path="url(#pebc299f105)" style="fill: #d8a673; stroke: #3a2a1a; stroke-width: 0.8; stroke-linejoin: miter"/>
   </g>
   <g id="line2d_1">
    <path d="M 110.380935 157.145682 
L 485.957858 157.145682 
" clip-path="url(#pebc299f105)" style="fill: none; stroke-dasharray: 4.2,2.8; stroke-dashoffset: 0; stroke: #b07a3a; stroke-width: 0.7"/>
   </g>
   <g id="line2d_2">
    <path d="M 110.380935 50.447692 
L 485.957858 50.447692 
" clip-path="url(#pebc299f105)" style="fill: none; stroke-dasharray: 4.2,2.8; stroke-dashoffset: 0; stroke: #b07a3a; stroke-width: 0.7"/>
   </g>
   <g id="line2d_3">
    <path d="M 127.452613 174.21736 
L 127.452613 198.459143 
" clip-path="url(#pebc299f105)" style="fill: none; stroke: #1763b8; stroke-width: 0.5; stroke-linecap: square"/>
   </g>
   <g id="line2d_4">
    <path d="M 468.88618 174.21736 
L 468.88618 198.459143 
" clip-path="url(#pebc299f105)" style="fill: none; stroke: #1763b8; stroke-width: 0.5; stroke-linecap: square"/>
   </g>
   <g id="line2d_5">
    <path d="M 127.452613 174.21736 
L 151.694396 174.21736 
" clip-path="url(#pebc299f105)" style="fill: none; stroke: #1763b8; stroke-width: 0.5; stroke-linecap: square"/>
   </g>
   <g id="line2d_6">
    <path d="M 127.452613 33.376014 
L 151.694396 33.376014 
" clip-path="url(#pebc299f105)" style="fill: none; stroke: #1763b8; stroke-width: 0.5; stroke-linecap: square"/>
   </g>
   <g id="line2d_7">
    <path d="M 180.705484 44.045813 
L 180.705484 26.632701 
" clip-path="url(#pebc299f105)" style="fill: none; stroke: #1763b8; stroke-width: 0.5; stroke-linecap: square"/>
   </g>
   <g id="line2d_8">
    <path d="M 241.84967 44.045813 
L 241.84967 26.632701 
" clip-path="url(#pebc299f105)" style="fill: none; stroke: #1763b8; stroke-width: 0.5; stroke-linecap: square"/>
   </g>
   <g id="line2d_9">
    <path d="M 468.88618 163.547561 
L 448.058732 163.547561 
" clip-path="url(#pebc299f105)" style="fill: none; stroke: #1763b8; stroke-width: 0.5; stroke-linecap: square"/>
   </g>
   <g id="line2d_10">
    <path d="M 468.88618 44.045813 
L 448.058732 44.045813 
" clip-path="url(#pebc299f105)" style="fill: none; stroke: #1763b8; stroke-width: 0.5; stroke-linecap: square"/>
   </g>
   <g id="patch_10">
    <path d="M 467.879949 196.410542 
Q 298.169396 196.410542 128.458844 196.410542 
" style="fill: none; stroke: #1763b8; stroke-width: 0.9; stroke-linecap: round"/>
    <path d="M 464.279949 194.610542 
L 467.879949 196.410542 
L 464.279949 198.210542 
" style="fill: none; stroke: #1763b8; stroke-width: 0.9; stroke-linecap: round"/>
    <path d="M 132.058844 198.210542 
L 128.458844 196.410542 
L 132.058844 194.610542 
" style="fill: none; stroke: #1763b8; stroke-width: 0.9; stroke-linecap: round"/>
   </g>
   <g id="text_1">
    <!-- 20" -->
    <g style="fill: #1763b8" transform="translate(290.373146 201.821335) scale(0.09 -0.09)">
     <defs>
      <path id="DejaVuSans-15" d="M 1228 531 
L 3431 531 
L 3431 0 
L 469 0 
L 469 531 
Q 828 903 1448 1529 
Q 2069 2156 2228 2338 
Q 2531 2678 2651 2914 
Q 2772 3150 2772 3378 
Q 2772 3750 2511 3984 
Q 2250 4219 1831 4219 
Q 1534 4219 1204 4116 
Q 875 4013 500 3803 
L 500 4441 
Q 881 4594 1212 4672 
Q 1544 4750 1819 4750 
Q 2544 4750 2975 4387 
Q 3406 4025 3406 3419 
Q 3406 3131 3298 2873 
Q 3191 2616 2906 2266 
Q 2828 2175 2409 1742 
Q 1991 1309 1228 531 
z
" transform="scale(0.015625)"/>
      <path id="DejaVuSans-13" d="M 2034 4250 
Q 1547 4250 1301 3770 
Q 1056 3291 1056 2328 
Q 1056 1369 1301 889 
Q 1547 409 2034 409 
Q 2525 409 2770 889 
Q 3016 1369 3016 2328 
Q 3016 3291 2770 3770 
Q 2525 4250 2034 4250 
z
M 2034 4750 
Q 2819 4750 3233 4129 
Q 3647 3509 3647 2328 
Q 3647 1150 3233 529 
Q 2819 -91 2034 -91 
Q 1250 -91 836 529 
Q 422 1150 422 2328 
Q 422 3509 836 4129 
Q 1250 4750 2034 4750 
z
" transform="scale(0.015625)"/>
      <path id="DejaVuSans-5" d="M 1147 4666 
L 1147 2931 
L 616 2931 
L 616 4666 
L 1147 4666 
z
M 2328 4666 
L 2328 2931 
L 1797 2931 
L 1797 4666 
L 2328 4666 
z
" transform="scale(0.015625)"/>
     </defs>
     <use xlink:href="#DejaVuSans-15"/>
     <use xlink:href="#DejaVuSans-13" transform="translate(63.625 0)"/>
     <use xlink:href="#DejaVuSans-5" transform="translate(127.25 0)"/>
    </g>
   </g>
   <g id="patch_11">
    <path d="M 149.645795 34.382245 
Q 149.645795 103.796687 149.645795 173.21113 
" style="fill: none; stroke: #1763b8; stroke-width: 0.9; stroke-linecap: round"/>
    <path d="M 147.845795 37.982245 
L 149.645795 34.382245 
L 151.445795 37.982245 
" style="fill: none; stroke: #1763b8; stroke-width: 0.9; stroke-linecap: round"/>
    <path d="M 151.445795 169.61113 
L 149.645795 173.21113 
L 147.845795 169.61113 
" style="fill: none; stroke: #1763b8; stroke-width: 0.9; stroke-linecap: round"/>
   </g>
   <g id="text_2">
    <!-- 8¼" -->
    <g style="fill: #1763b8" transform="translate(155.056588 113.091296) rotate(-90) scale(0.09 -0.09)">
     <defs>
      <path id="DejaVuSans-1b" d="M 2034 2216 
Q 1584 2216 1326 1975 
Q 1069 1734 1069 1313 
Q 1069 891 1326 650 
Q 1584 409 2034 409 
Q 2484 409 2743 651 
Q 3003 894 3003 1313 
Q 3003 1734 2745 1975 
Q 2488 2216 2034 2216 
z
M 1403 2484 
Q 997 2584 770 2862 
Q 544 3141 544 3541 
Q 544 4100 942 4425 
Q 1341 4750 2034 4750 
Q 2731 4750 3128 4425 
Q 3525 4100 3525 3541 
Q 3525 3141 3298 2862 
Q 3072 2584 2669 2484 
Q 3125 2378 3379 2068 
Q 3634 1759 3634 1313 
Q 3634 634 3220 271 
Q 2806 -91 2034 -91 
Q 1263 -91 848 271 
Q 434 634 434 1313 
Q 434 1759 690 2068 
Q 947 2378 1403 2484 
z
M 1172 3481 
Q 1172 3119 1398 2916 
Q 1625 2713 2034 2713 
Q 2441 2713 2670 2916 
Q 2900 3119 2900 3481 
Q 2900 3844 2670 4047 
Q 2441 4250 2034 4250 
Q 1625 4250 1398 4047 
Q 1172 3844 1172 3481 
z
" transform="scale(0.015625)"/>
      <path id="DejaVuSans-7e" d="M 488 2431 
L 1125 2431 
L 1125 4341 
L 428 4213 
L 428 4575 
L 1147 4697 
L 1575 4697 
L 1575 2431 
L 2216 2431 
L 2216 2088 
L 488 2088 
L 488 2431 
z
M 5125 2231 
L 4159 921 
L 5125 921 
L 5125 2231 
z
M 5056 2609 
L 5575 2609 
L 5575 921 
L 5997 921 
L 5997 581 
L 5575 581 
L 5575 0 
L 5125 0 
L 5125 581 
L 3831 581 
L 3831 959 
L 5056 2609 
z
M 4307 4750 
L 4807 4750 
L 1894 -91 
L 1394 -91 
L 4307 4750 
z
" transform="scale(0.015625)"/>
     </defs>
     <use xlink:href="#DejaVuSans-1b"/>
     <use xlink:href="#DejaVuSans-7e" transform="translate(63.625 0)"/>
     <use xlink:href="#DejaVuSans-5" transform="translate(160.546875 0)"/>
    </g>
   </g>
   <g id="patch_12">
    <path d="M 240.843439 28.681302 
Q 211.277577 28.681302 181.711715 28.681302 
" style="fill: none; stroke: #1763b8; stroke-width: 0.9; stroke-linecap: round"/>
    <path d="M 237.243439 26.881302 
L 240.843439 28.681302 
L 237.243439 30.481302 
" style="fill: none; stroke: #1763b8; stroke-width: 0.9; stroke-linecap: round"/>
    <path d="M 185.311715 30.481302 
L 181.711715 28.681302 
L 185.311715 26.881302 
" style="fill: none; stroke: #1763b8; stroke-width: 0.9; stroke-linecap: round"/>
   </g>
   <g id="text_3">
    <!-- ≈3⅝" -->
    <g style="fill: #1763b8" transform="translate(199.663827 27.686525) scale(0.08 -0.08)">
     <defs>
      <path id="DejaVuSans-cd2" d="M 4684 1947 
L 4684 1388 
Q 4356 1144 4076 1036 
Q 3797 928 3494 928 
Q 3150 928 2694 1113 
Q 2663 1125 2641 1134 
Q 2622 1141 2575 1159 
Q 2091 1350 1797 1350 
Q 1522 1350 1253 1231 
Q 984 1113 678 850 
L 678 1409 
Q 1006 1653 1286 1761 
Q 1566 1869 1869 1869 
Q 2213 1869 2672 1684 
Q 2706 1669 2722 1663 
Q 2741 1656 2788 1638 
Q 3272 1447 3566 1447 
Q 3834 1447 4098 1564 
Q 4363 1681 4684 1947 
z
M 4684 3163 
L 4684 2606 
Q 4356 2359 4076 2251 
Q 3797 2144 3494 2144 
Q 3150 2144 2694 2328 
Q 2663 2341 2641 2350 
Q 2622 2356 2575 2375 
Q 2091 2566 1797 2566 
Q 1522 2566 1253 2447 
Q 984 2328 678 2069 
L 678 2625 
Q 1006 2869 1286 2976 
Q 1566 3084 1869 3084 
Q 2213 3084 2672 2900 
Q 2703 2888 2719 2881 
Q 2741 2872 2788 2853 
Q 3272 2663 3566 2663 
Q 3834 2663 4098 2780 
Q 4363 2897 4684 3163 
z
" transform="scale(0.015625)"/>
      <path id="DejaVuSans-16" d="M 2597 2516 
Q 3050 2419 3304 2112 
Q 3559 1806 3559 1356 
Q 3559 666 3084 287 
Q 2609 -91 1734 -91 
Q 1441 -91 1130 -33 
Q 819 25 488 141 
L 488 750 
Q 750 597 1062 519 
Q 1375 441 1716 441 
Q 2309 441 2620 675 
Q 2931 909 2931 1356 
Q 2931 1769 2642 2001 
Q 2353 2234 1838 2234 
L 1294 2234 
L 1294 2753 
L 1863 2753 
Q 2328 2753 2575 2939 
Q 2822 3125 2822 3475 
Q 2822 3834 2567 4026 
Q 2313 4219 1838 4219 
Q 1578 4219 1281 4162 
Q 984 4106 628 3988 
L 628 4550 
Q 988 4650 1302 4700 
Q 1616 4750 1894 4750 
Q 2613 4750 3031 4423 
Q 3450 4097 3450 3541 
Q 3450 3153 3228 2886 
Q 3006 2619 2597 2516 
z
" transform="scale(0.015625)"/>
      <path id="DejaVuSans-bf0" d="M 444 4697 
L 2038 4697 
L 2038 4400 
L 816 4400 
L 816 3763 
Q 903 3791 994 3803 
Q 1081 3816 1169 3816 
Q 1672 3816 1966 3575 
Q 2259 3338 2259 2928 
Q 2259 2506 1956 2272 
Q 1656 2041 1106 2041 
Q 919 2041 722 2069 
Q 525 2097 319 2153 
L 319 2506 
Q 497 2422 691 2378 
Q 884 2338 1100 2338 
Q 1447 2338 1650 2497 
Q 1853 2656 1853 2928 
Q 1853 3200 1650 3359 
Q 1447 3519 1100 3519 
Q 938 3519 775 3487 
Q 613 3456 444 3391 
L 444 4697 
z
M 4307 4750 
L 4807 4750 
L 1894 -91 
L 1394 -91 
L 4307 4750 
z
M 5400 1106 
Q 5234 1243 4943 1243 
Q 4653 1243 4487 1106 
Q 4322 971 4322 737 
Q 4322 500 4487 365 
Q 4653 231 4943 231 
Q 5231 231 5400 368 
Q 5565 503 5565 737 
Q 5565 971 5400 1106 
z
M 4537 1396 
Q 4275 1453 4131 1606 
Q 3984 1762 3984 1987 
Q 3984 2300 4240 2481 
Q 4497 2662 4943 2662 
Q 5390 2662 5647 2481 
Q 5900 2300 5900 1987 
Q 5900 1756 5756 1606 
Q 5609 1453 5350 1396 
Q 5631 1340 5806 1159 
Q 5972 987 5972 737 
Q 5972 359 5706 156 
Q 5437 -47 4943 -47 
Q 4447 -47 4181 156 
Q 3912 359 3912 737 
Q 3912 981 4078 1159 
Q 4247 1334 4537 1396 
z
M 4387 1953 
Q 4387 1756 4534 1637 
Q 4678 1521 4943 1521 
Q 5197 1521 5350 1637 
Q 5500 1750 5500 1953 
Q 5500 2150 5350 2268 
Q 5203 2384 4943 2384 
Q 4684 2384 4534 2268 
Q 4387 2156 4387 1953 
z
" transform="scale(0.015625)"/>
     </defs>
     <use xlink:href="#DejaVuSans-cd2"/>
     <use xlink:href="#DejaVuSans-16" transform="translate(83.796875 0)"/>
     <use xlink:href="#DejaVuSans-bf0" transform="translate(147.421875 0)"/>
     <use xlink:href="#DejaVuSans-5" transform="translate(244.34375 0)"/>
    </g>
   </g>
   <g id="patch_13">
    <path d="M 450.107333 45.052044 
Q 450.107333 103.796687 450.107333 162.541331 
" style="fill: none; stroke: #1763b8; stroke-width: 0.9; stroke-linecap: round"/>
    <path d="M 448.307333 48.652044 
L 450.107333 45.052044 
L 451.907333 48.652044 
" style="fill: none; stroke: #1763b8; stroke-width: 0.9; stroke-linecap: round"/>
    <path d="M 451.907333 158.941331 
L 450.107333 162.541331 
L 448.307333 158.941331 
" style="fill: none; stroke: #1763b8; stroke-width: 0.9; stroke-linecap: round"/>
   </g>
   <g id="text_4">
    <!-- 7" -->
    <g style="fill: #1763b8" transform="translate(449.112556 108.181687) rotate(-90) scale(0.08 -0.08)">
     <defs>
      <path id="DejaVuSans-1a" d="M 525 4666 
L 3525 4666 
L 3525 4397 
L 1831 0 
L 1172 0 
L 2766 4134 
L 525 4134 
L 525 4666 
z
" transform="scale(0.015625)"/>
     </defs>
     <use xlink:href="#DejaVuSans-1a"/>
     <use xlink:href="#DejaVuSans-5" transform="translate(63.625 0)"/>
    </g>
   </g>
   <g id="patch_14">
    <path d="M 86.888681 19.907282 
Q 109.128317 29.13927 131.367952 38.371258 
" style="fill: none; stroke: #3a2a1a; stroke-width: 0.6; stroke-linecap: round"/>
   </g>
   <g id="text_5">
    <!-- R 1⅛" -->
    <g style="fill: #3a2a1a" transform="translate(56.902187 15.098008) scale(0.085 -0.085)">
     <defs>
      <path id="DejaVuSans-35" d="M 2841 2188 
Q 3044 2119 3236 1894 
Q 3428 1669 3622 1275 
L 4263 0 
L 3584 0 
L 2988 1197 
Q 2756 1666 2539 1819 
Q 2322 1972 1947 1972 
L 1259 1972 
L 1259 0 
L 628 0 
L 628 4666 
L 2053 4666 
Q 2853 4666 3247 4331 
Q 3641 3997 3641 3322 
Q 3641 2881 3436 2590 
Q 3231 2300 2841 2188 
z
M 1259 4147 
L 1259 2491 
L 2053 2491 
Q 2509 2491 2742 2702 
Q 2975 2913 2975 3322 
Q 2975 3731 2742 3939 
Q 2509 4147 2053 4147 
L 1259 4147 
z
" transform="scale(0.015625)"/>
      <path id="DejaVuSans-3" transform="scale(0.015625)"/>
      <path id="DejaVuSans-14" d="M 794 531 
L 1825 531 
L 1825 4091 
L 703 3866 
L 703 4441 
L 1819 4666 
L 2450 4666 
L 2450 531 
L 3481 531 
L 3481 0 
L 794 0 
L 794 531 
z
" transform="scale(0.015625)"/>
      <path id="DejaVuSans-bee" d="M 488 2431 
L 1125 2431 
L 1125 4341 
L 428 4213 
L 428 4575 
L 1147 4697 
L 1575 4697 
L 1575 2431 
L 2216 2431 
L 2216 2088 
L 488 2088 
L 488 2431 
z
M 4307 4750 
L 4807 4750 
L 1894 -91 
L 1394 -91 
L 4307 4750 
z
M 5400 1106 
Q 5234 1243 4943 1243 
Q 4653 1243 4487 1106 
Q 4322 971 4322 737 
Q 4322 500 4487 365 
Q 4653 231 4943 231 
Q 5231 231 5400 368 
Q 5565 503 5565 737 
Q 5565 971 5400 1106 
z
M 4537 1396 
Q 4275 1453 4131 1606 
Q 3984 1762 3984 1987 
Q 3984 2300 4240 2481 
Q 4497 2662 4943 2662 
Q 5390 2662 5647 2481 
Q 5900 2300 5900 1987 
Q 5900 1756 5756 1606 
Q 5609 1453 5350 1396 
Q 5631 1340 5806 1159 
Q 5972 987 5972 737 
Q 5972 359 5706 156 
Q 5437 -47 4943 -47 
Q 4447 -47 4181 156 
Q 3912 359 3912 737 
Q 3912 981 4078 1159 
Q 4247 1334 4537 1396 
z
M 4387 1953 
Q 4387 1756 4534 1637 
Q 4678 1521 4943 1521 
Q 5197 1521 5350 1637 
Q 5500 1750 5500 1953 
Q 5500 2150 5350 2268 
Q 5203 2384 4943 2384 
Q 4684 2384 4534 2268 
Q 4387 2156 4387 1953 
z
" transform="scale(0.015625)"/>
     </defs>
     <use xlink:href="#DejaVuSans-35"/>
     <use xlink:href="#DejaVuSans-3" transform="translate(69.484375 0)"/>
     <use xlink:href="#DejaVuSans-14" transform="translate(101.265625 0)"/>
     <use xlink:href="#DejaVuSans-bee" transform="translate(164.890625 0)"/>
     <use xlink:href="#DejaVuSans-5" transform="translate(261.8125 0)"/>
    </g>
   </g>
   <g id="patch_15">
    <path d="M 80.155483 120.223017 
Q 107.645202 112.287066 135.13492 104.351116 
" style="fill: none; stroke: #3a2a1a; stroke-width: 0.6; stroke-linecap: round"/>
   </g>
   <g id="text_6">
    <!-- underside 45° -->
    <g style="fill: #3a2a1a" transform="translate(16.159844 128.21855) scale(0.085 -0.085)">
     <defs>
      <path id="DejaVuSans-58" d="M 544 1381 
L 544 3500 
L 1119 3500 
L 1119 1403 
Q 1119 906 1312 657 
Q 1506 409 1894 409 
Q 2359 409 2629 706 
Q 2900 1003 2900 1516 
L 2900 3500 
L 3475 3500 
L 3475 0 
L 2900 0 
L 2900 538 
Q 2691 219 2414 64 
Q 2138 -91 1772 -91 
Q 1169 -91 856 284 
Q 544 659 544 1381 
z
M 1991 3584 
L 1991 3584 
z
" transform="scale(0.015625)"/>
      <path id="DejaVuSans-51" d="M 3513 2113 
L 3513 0 
L 2938 0 
L 2938 2094 
Q 2938 2591 2744 2837 
Q 2550 3084 2163 3084 
Q 1697 3084 1428 2787 
Q 1159 2491 1159 1978 
L 1159 0 
L 581 0 
L 581 3500 
L 1159 3500 
L 1159 2956 
Q 1366 3272 1645 3428 
Q 1925 3584 2291 3584 
Q 2894 3584 3203 3211 
Q 3513 2838 3513 2113 
z
" transform="scale(0.015625)"/>
      <path id="DejaVuSans-47" d="M 2906 2969 
L 2906 4863 
L 3481 4863 
L 3481 0 
L 2906 0 
L 2906 525 
Q 2725 213 2448 61 
Q 2172 -91 1784 -91 
Q 1150 -91 751 415 
Q 353 922 353 1747 
Q 353 2572 751 3078 
Q 1150 3584 1784 3584 
Q 2172 3584 2448 3432 
Q 2725 3281 2906 2969 
z
M 947 1747 
Q 947 1113 1208 752 
Q 1469 391 1925 391 
Q 2381 391 2643 752 
Q 2906 1113 2906 1747 
Q 2906 2381 2643 2742 
Q 2381 3103 1925 3103 
Q 1469 3103 1208 2742 
Q 947 2381 947 1747 
z
" transform="scale(0.015625)"/>
      <path id="DejaVuSans-48" d="M 3597 1894 
L 3597 1613 
L 953 1613 
Q 991 1019 1311 708 
Q 1631 397 2203 397 
Q 2534 397 2845 478 
Q 3156 559 3463 722 
L 3463 178 
Q 3153 47 2828 -22 
Q 2503 -91 2169 -91 
Q 1331 -91 842 396 
Q 353 884 353 1716 
Q 353 2575 817 3079 
Q 1281 3584 2069 3584 
Q 2775 3584 3186 3129 
Q 3597 2675 3597 1894 
z
M 3022 2063 
Q 3016 2534 2758 2815 
Q 2500 3097 2075 3097 
Q 1594 3097 1305 2825 
Q 1016 2553 972 2059 
L 3022 2063 
z
" transform="scale(0.015625)"/>
      <path id="DejaVuSans-55" d="M 2631 2963 
Q 2534 3019 2420 3045 
Q 2306 3072 2169 3072 
Q 1681 3072 1420 2755 
Q 1159 2438 1159 1844 
L 1159 0 
L 581 0 
L 581 3500 
L 1159 3500 
L 1159 2956 
Q 1341 3275 1631 3429 
Q 1922 3584 2338 3584 
Q 2397 3584 2469 3576 
Q 2541 3569 2628 3553 
L 2631 2963 
z
" transform="scale(0.015625)"/>
      <path id="DejaVuSans-56" d="M 2834 3397 
L 2834 2853 
Q 2591 2978 2328 3040 
Q 2066 3103 1784 3103 
Q 1356 3103 1142 2972 
Q 928 2841 928 2578 
Q 928 2378 1081 2264 
Q 1234 2150 1697 2047 
L 1894 2003 
Q 2506 1872 2764 1633 
Q 3022 1394 3022 966 
Q 3022 478 2636 193 
Q 2250 -91 1575 -91 
Q 1294 -91 989 -36 
Q 684 19 347 128 
L 347 722 
Q 666 556 975 473 
Q 1284 391 1588 391 
Q 1994 391 2212 530 
Q 2431 669 2431 922 
Q 2431 1156 2273 1281 
Q 2116 1406 1581 1522 
L 1381 1569 
Q 847 1681 609 1914 
Q 372 2147 372 2553 
Q 372 3047 722 3315 
Q 1072 3584 1716 3584 
Q 2034 3584 2315 3537 
Q 2597 3491 2834 3397 
z
" transform="scale(0.015625)"/>
      <path id="DejaVuSans-4c" d="M 603 3500 
L 1178 3500 
L 1178 0 
L 603 0 
L 603 3500 
z
M 603 4863 
L 1178 4863 
L 1178 4134 
L 603 4134 
L 603 4863 
z
" transform="scale(0.015625)"/>
      <path id="DejaVuSans-17" d="M 2419 4116 
L 825 1625 
L 2419 1625 
L 2419 4116 
z
M 2253 4666 
L 3047 4666 
L 3047 1625 
L 3713 1625 
L 3713 1100 
L 3047 1100 
L 3047 0 
L 2419 0 
L 2419 1100 
L 313 1100 
L 313 1709 
L 2253 4666 
z
" transform="scale(0.015625)"/>
      <path id="DejaVuSans-18" d="M 691 4666 
L 3169 4666 
L 3169 4134 
L 1269 4134 
L 1269 2991 
Q 1406 3038 1543 3061 
Q 1681 3084 1819 3084 
Q 2600 3084 3056 2656 
Q 3513 2228 3513 1497 
Q 3513 744 3044 326 
Q 2575 -91 1722 -91 
Q 1428 -91 1123 -41 
Q 819 9 494 109 
L 494 744 
Q 775 591 1075 516 
Q 1375 441 1709 441 
Q 2250 441 2565 725 
Q 2881 1009 2881 1497 
Q 2881 1984 2565 2268 
Q 2250 2553 1709 2553 
Q 1456 2553 1204 2497 
Q 953 2441 691 2322 
L 691 4666 
z
" transform="scale(0.015625)"/>
      <path id="DejaVuSans-72" d="M 1600 4347 
Q 1350 4347 1178 4173 
Q 1006 4000 1006 3750 
Q 1006 3503 1178 3333 
Q 1350 3163 1600 3163 
Q 1850 3163 2022 3333 
Q 2194 3503 2194 3750 
Q 2194 3997 2020 4172 
Q 1847 4347 1600 4347 
z
M 1600 4750 
Q 1800 4750 1984 4673 
Q 2169 4597 2303 4453 
Q 2447 4313 2519 4134 
Q 2591 3956 2591 3750 
Q 2591 3338 2302 3052 
Q 2013 2766 1594 2766 
Q 1172 2766 890 3047 
Q 609 3328 609 3750 
Q 609 4169 896 4459 
Q 1184 4750 1600 4750 
z
" transform="scale(0.015625)"/>
     </defs>
     <use xlink:href="#DejaVuSans-58"/>
     <use xlink:href="#DejaVuSans-51" transform="translate(63.375 0)"/>
     <use xlink:href="#DejaVuSans-47" transform="translate(126.75 0)"/>
     <use xlink:href="#DejaVuSans-48" transform="translate(190.234375 0)"/>
     <use xlink:href="#DejaVuSans-55" transform="translate(251.765625 0)"/>
     <use xlink:href="#DejaVuSans-56" transform="translate(292.875 0)"/>
     <use xlink:href="#DejaVuSans-4c" transform="translate(344.96875 0)"/>
     <use xlink:href="#DejaVuSans-47" transform="translate(372.75 0)"/>
     <use xlink:href="#DejaVuSans-48" transform="translate(436.234375 0)"/>
     <use xlink:href="#DejaVuSans-3" transform="translate(497.765625 0)"/>
     <use xlink:href="#DejaVuSans-17" transform="translate(529.546875 0)"/>
     <use xlink:href="#DejaVuSans-18" transform="translate(593.171875 0)"/>
     <use xlink:href="#DejaVuSans-72" transform="translate(656.796875 0)"/>
    </g>
    <!-- chamfer (9/16") -->
    <g style="fill: #3a2a1a" transform="translate(8.64 138.420874) scale(0.085 -0.085)">
     <defs>
      <path id="DejaVuSans-46" d="M 3122 3366 
L 3122 2828 
Q 2878 2963 2633 3030 
Q 2388 3097 2138 3097 
Q 1578 3097 1268 2742 
Q 959 2388 959 1747 
Q 959 1106 1268 751 
Q 1578 397 2138 397 
Q 2388 397 2633 464 
Q 2878 531 3122 666 
L 3122 134 
Q 2881 22 2623 -34 
Q 2366 -91 2075 -91 
Q 1284 -91 818 406 
Q 353 903 353 1747 
Q 353 2603 823 3093 
Q 1294 3584 2113 3584 
Q 2378 3584 2631 3529 
Q 2884 3475 3122 3366 
z
" transform="scale(0.015625)"/>
      <path id="DejaVuSans-4b" d="M 3513 2113 
L 3513 0 
L 2938 0 
L 2938 2094 
Q 2938 2591 2744 2837 
Q 2550 3084 2163 3084 
Q 1697 3084 1428 2787 
Q 1159 2491 1159 1978 
L 1159 0 
L 581 0 
L 581 4863 
L 1159 4863 
L 1159 2956 
Q 1366 3272 1645 3428 
Q 1925 3584 2291 3584 
Q 2894 3584 3203 3211 
Q 3513 2838 3513 2113 
z
" transform="scale(0.015625)"/>
      <path id="DejaVuSans-44" d="M 2194 1759 
Q 1497 1759 1228 1600 
Q 959 1441 959 1056 
Q 959 750 1161 570 
Q 1363 391 1709 391 
Q 2188 391 2477 730 
Q 2766 1069 2766 1631 
L 2766 1759 
L 2194 1759 
z
M 3341 1997 
L 3341 0 
L 2766 0 
L 2766 531 
Q 2569 213 2275 61 
Q 1981 -91 1556 -91 
Q 1019 -91 701 211 
Q 384 513 384 1019 
Q 384 1609 779 1909 
Q 1175 2209 1959 2209 
L 2766 2209 
L 2766 2266 
Q 2766 2663 2505 2880 
Q 2244 3097 1772 3097 
Q 1472 3097 1187 3025 
Q 903 2953 641 2809 
L 641 3341 
Q 956 3463 1253 3523 
Q 1550 3584 1831 3584 
Q 2591 3584 2966 3190 
Q 3341 2797 3341 1997 
z
" transform="scale(0.015625)"/>
      <path id="DejaVuSans-50" d="M 3328 2828 
Q 3544 3216 3844 3400 
Q 4144 3584 4550 3584 
Q 5097 3584 5394 3201 
Q 5691 2819 5691 2113 
L 5691 0 
L 5113 0 
L 5113 2094 
Q 5113 2597 4934 2840 
Q 4756 3084 4391 3084 
Q 3944 3084 3684 2787 
Q 3425 2491 3425 1978 
L 3425 0 
L 2847 0 
L 2847 2094 
Q 2847 2600 2669 2842 
Q 2491 3084 2119 3084 
Q 1678 3084 1418 2786 
Q 1159 2488 1159 1978 
L 1159 0 
L 581 0 
L 581 3500 
L 1159 3500 
L 1159 2956 
Q 1356 3278 1631 3431 
Q 1906 3584 2284 3584 
Q 2666 3584 2933 3390 
Q 3200 3197 3328 2828 
z
" transform="scale(0.015625)"/>
      <path id="DejaVuSans-49" d="M 2375 4863 
L 2375 4384 
L 1825 4384 
Q 1516 4384 1395 4259 
Q 1275 4134 1275 3809 
L 1275 3500 
L 2222 3500 
L 2222 3053 
L 1275 3053 
L 1275 0 
L 697 0 
L 697 3053 
L 147 3053 
L 147 3500 
L 697 3500 
L 697 3744 
Q 697 4328 969 4595 
Q 1241 4863 1831 4863 
L 2375 4863 
z
" transform="scale(0.015625)"/>
      <path id="DejaVuSans-b" d="M 1984 4856 
Q 1566 4138 1362 3434 
Q 1159 2731 1159 2009 
Q 1159 1288 1364 580 
Q 1569 -128 1984 -844 
L 1484 -844 
Q 1016 -109 783 600 
Q 550 1309 550 2009 
Q 550 2706 781 3412 
Q 1013 4119 1484 4856 
L 1984 4856 
z
" transform="scale(0.015625)"/>
      <path id="DejaVuSans-1c" d="M 703 97 
L 703 672 
Q 941 559 1184 500 
Q 1428 441 1663 441 
Q 2288 441 2617 861 
Q 2947 1281 2994 2138 
Q 2813 1869 2534 1725 
Q 2256 1581 1919 1581 
Q 1219 1581 811 2004 
Q 403 2428 403 3163 
Q 403 3881 828 4315 
Q 1253 4750 1959 4750 
Q 2769 4750 3195 4129 
Q 3622 3509 3622 2328 
Q 3622 1225 3098 567 
Q 2575 -91 1691 -91 
Q 1453 -91 1209 -44 
Q 966 3 703 97 
z
M 1959 2075 
Q 2384 2075 2632 2365 
Q 2881 2656 2881 3163 
Q 2881 3666 2632 3958 
Q 2384 4250 1959 4250 
Q 1534 4250 1286 3958 
Q 1038 3666 1038 3163 
Q 1038 2656 1286 2365 
Q 1534 2075 1959 2075 
z
" transform="scale(0.015625)"/>
      <path id="DejaVuSans-12" d="M 1625 4666 
L 2156 4666 
L 531 -594 
L 0 -594 
L 1625 4666 
z
" transform="scale(0.015625)"/>
      <path id="DejaVuSans-19" d="M 2113 2584 
Q 1688 2584 1439 2293 
Q 1191 2003 1191 1497 
Q 1191 994 1439 701 
Q 1688 409 2113 409 
Q 2538 409 2786 701 
Q 3034 994 3034 1497 
Q 3034 2003 2786 2293 
Q 2538 2584 2113 2584 
z
M 3366 4563 
L 3366 3988 
Q 3128 4100 2886 4159 
Q 2644 4219 2406 4219 
Q 1781 4219 1451 3797 
Q 1122 3375 1075 2522 
Q 1259 2794 1537 2939 
Q 1816 3084 2150 3084 
Q 2853 3084 3261 2657 
Q 3669 2231 3669 1497 
Q 3669 778 3244 343 
Q 2819 -91 2113 -91 
Q 1303 -91 875 529 
Q 447 1150 447 2328 
Q 447 3434 972 4092 
Q 1497 4750 2381 4750 
Q 2619 4750 2861 4703 
Q 3103 4656 3366 4563 
z
" transform="scale(0.015625)"/>
      <path id="DejaVuSans-c" d="M 513 4856 
L 1013 4856 
Q 1481 4119 1714 3412 
Q 1947 2706 1947 2009 
Q 1947 1309 1714 600 
Q 1481 -109 1013 -844 
L 513 -844 
Q 928 -128 1133 580 
Q 1338 1288 1338 2009 
Q 1338 2731 1133 3434 
Q 928 4138 513 4856 
z
" transform="scale(0.015625)"/>
     </defs>
     <use xlink:href="#DejaVuSans-46"/>
     <use xlink:href="#DejaVuSans-4b" transform="translate(54.984375 0)"/>
     <use xlink:href="#DejaVuSans-44" transform="translate(118.359375 0)"/>
     <use xlink:href="#DejaVuSans-50" transform="translate(179.640625 0)"/>
     <use xlink:href="#DejaVuSans-49" transform="translate(277.046875 0)"/>
     <use xlink:href="#DejaVuSans-48" transform="translate(312.25 0)"/>
     <use xlink:href="#DejaVuSans-55" transform="translate(373.78125 0)"/>
     <use xlink:href="#DejaVuSans-3" transform="translate(414.890625 0)"/>
     <use xlink:href="#DejaVuSans-b" transform="translate(446.671875 0)"/>
     <use xlink:href="#DejaVuSans-1c" transform="translate(485.6875 0)"/>
     <use xlink:href="#DejaVuSans-12" transform="translate(549.3125 0)"/>
     <use xlink:href="#DejaVuSans-14" transform="translate(583 0)"/>
     <use xlink:href="#DejaVuSans-19" transform="translate(646.625 0)"/>
     <use xlink:href="#DejaVuSans-5" transform="translate(710.25 0)"/>
     <use xlink:href="#DejaVuSans-c" transform="translate(756.25 0)"/>
    </g>
   </g>
   <g id="text_7">
    <!-- cleat -->
    <g style="fill: #1763b8" transform="translate(201.486327 105.875125) scale(0.08 -0.08)">
     <defs>
      <path id="DejaVuSans-4f" d="M 603 4863 
L 1178 4863 
L 1178 0 
L 603 0 
L 603 4863 
z
" transform="scale(0.015625)"/>
      <path id="DejaVuSans-57" d="M 1172 4494 
L 1172 3500 
L 2356 3500 
L 2356 3053 
L 1172 3053 
L 1172 1153 
Q 1172 725 1289 603 
Q 1406 481 1766 481 
L 2356 481 
L 2356 0 
L 1766 0 
Q 1100 0 847 248 
Q 594 497 594 1153 
L 594 3053 
L 172 3053 
L 172 3500 
L 594 3500 
L 594 4494 
L 1172 4494 
z
" transform="scale(0.015625)"/>
     </defs>
     <use xlink:href="#DejaVuSans-46"/>
     <use xlink:href="#DejaVuSans-4f" transform="translate(54.984375 0)"/>
     <use xlink:href="#DejaVuSans-48" transform="translate(82.765625 0)"/>
     <use xlink:href="#DejaVuSans-44" transform="translate(144.296875 0)"/>
     <use xlink:href="#DejaVuSans-57" transform="translate(205.578125 0)"/>
    </g>
   </g>
   <g id="text_8">
    <!-- Top — plan view -->
    <g style="fill: #3a2a1a" transform="translate(253.602209 17.196172) scale(0.11 -0.11)">
     <defs>
      <path id="DejaVuSans-37" d="M -19 4666 
L 3928 4666 
L 3928 4134 
L 2272 4134 
L 2272 0 
L 1638 0 
L 1638 4134 
L -19 4134 
L -19 4666 
z
" transform="scale(0.015625)"/>
      <path id="DejaVuSans-52" d="M 1959 3097 
Q 1497 3097 1228 2736 
Q 959 2375 959 1747 
Q 959 1119 1226 758 
Q 1494 397 1959 397 
Q 2419 397 2687 759 
Q 2956 1122 2956 1747 
Q 2956 2369 2687 2733 
Q 2419 3097 1959 3097 
z
M 1959 3584 
Q 2709 3584 3137 3096 
Q 3566 2609 3566 1747 
Q 3566 888 3137 398 
Q 2709 -91 1959 -91 
Q 1206 -91 779 398 
Q 353 888 353 1747 
Q 353 2609 779 3096 
Q 1206 3584 1959 3584 
z
" transform="scale(0.015625)"/>
      <path id="DejaVuSans-53" d="M 1159 525 
L 1159 -1331 
L 581 -1331 
L 581 3500 
L 1159 3500 
L 1159 2969 
Q 1341 3281 1617 3432 
Q 1894 3584 2278 3584 
Q 2916 3584 3314 3078 
Q 3713 2572 3713 1747 
Q 3713 922 3314 415 
Q 2916 -91 2278 -91 
Q 1894 -91 1617 61 
Q 1341 213 1159 525 
z
M 3116 1747 
Q 3116 2381 2855 2742 
Q 2594 3103 2138 3103 
Q 1681 3103 1420 2742 
Q 1159 2381 1159 1747 
Q 1159 1113 1420 752 
Q 1681 391 2138 391 
Q 2594 391 2855 752 
Q 3116 1113 3116 1747 
z
" transform="scale(0.015625)"/>
      <path id="DejaVuSans-af6" d="M 313 1978 
L 6088 1978 
L 6088 1528 
L 313 1528 
L 313 1978 
z
" transform="scale(0.015625)"/>
      <path id="DejaVuSans-59" d="M 191 3500 
L 800 3500 
L 1894 563 
L 2988 3500 
L 3597 3500 
L 2284 0 
L 1503 0 
L 191 3500 
z
" transform="scale(0.015625)"/>
      <path id="DejaVuSans-5a" d="M 269 3500 
L 844 3500 
L 1563 769 
L 2278 3500 
L 2956 3500 
L 3675 769 
L 4391 3500 
L 4966 3500 
L 4050 0 
L 3372 0 
L 2619 2869 
L 1863 0 
L 1184 0 
L 269 3500 
z
" transform="scale(0.015625)"/>
     </defs>
     <use xlink:href="#DejaVuSans-37"/>
     <use xlink:href="#DejaVuSans-52" transform="translate(44.09375 0)"/>
     <use xlink:href="#DejaVuSans-53" transform="translate(105.28125 0)"/>
     <use xlink:href="#DejaVuSans-3" transform="translate(168.765625 0)"/>
     <use xlink:href="#DejaVuSans-af6" transform="translate(200.546875 0)"/>
     <use xlink:href="#DejaVuSans-3" transform="translate(300.546875 0)"/>
     <use xlink:href="#DejaVuSans-53" transform="translate(332.328125 0)"/>
     <use xlink:href="#DejaVuSans-4f" transform="translate(395.8125 0)"/>
     <use xlink:href="#DejaVuSans-44" transform="translate(423.59375 0)"/>
     <use xlink:href="#DejaVuSans-51" transform="translate(484.875 0)"/>
     <use xlink:href="#DejaVuSans-3" transform="translate(548.25 0)"/>
     <use xlink:href="#DejaVuSans-59" transform="translate(580.03125 0)"/>
     <use xlink:href="#DejaVuSans-4c" transform="translate(639.21875 0)"/>
     <use xlink:href="#DejaVuSans-48" transform="translate(667 0)"/>
     <use xlink:href="#DejaVuSans-5a" transform="translate(728.53125 0)"/>
    </g>
   </g>
  </g>
 </g>
 <defs>
  <clipPath id="pebc299f105">
   <rect x="102.869396" y="23.196172" width="390.6" height="178.6995"/>
  </clipPath>
 </defs>
</svg>
